<svg xmlns="http://www.w3.org/2000/svg" width="636" height="520" fill="none" xmlns:v="https://vecta.io/nano"><path d="M318.774 519.602h-.44c-1.246 0-2.474 0-3.703-.037l.385-26.4 3.758.018v26.418zm9.295-.184l-1.008-26.38 3.3-.146 1.43 26.38-3.72.146zm-22.714-.146l-3.685-.22 1.742-26.345 3.336.202-1.393 26.363zm35.712-.697l-2.438-26.29 3.318-.33 2.786 26.27-3.666.348zm-48.655-.33l-3.703-.422 3.172-26.215 3.28.366-2.75 26.27zm61.56-1.2l-3.832-26.124 3.3-.513 4.198 26.07-3.666.568zm-74.467-.495l-3.685-.623 4.565-26.014 3.245.55-4.125 26.087zm87.263-1.705l-5.15-25.904 3.226-.678 5.573 25.812-3.648.77zm-100.06-.678l-3.63-.807 5.922-25.74 3.244.715-5.536 25.83zm112.763-2.218l-6.58-25.575 3.208-.843 6.948 25.483-3.575.935zm-125.394-.825l-3.593-1.01 7.296-25.39 3.2.88-6.893 25.52zm137.897-2.75l-7.9-25.208 3.153-1.008 8.286 25.08-3.538 1.137zm-150.363-1l-3.502-1.174 8.58-24.987 3.2 1.063-8.268 25.098zm162.664-3.227l-9.258-24.73 3.1-1.19 9.606 24.602-3.447 1.32zm-174.947-1.173l-3.465-1.375 9.936-24.474 3.098 1.228-9.57 24.62zm186.974-3.685L405.8 475.053l3.007-1.338 10.89 24.052-3.39 1.522zm-198.982-1.357l-3.39-1.558 11.237-23.906 3.025 1.393-10.87 24.07zm210.75-4.125l-11.806-23.612 2.95-1.504 12.173 23.448-3.318 1.668zM205.59 492.25l-3.28-1.723 12.448-23.283 2.95 1.558-12.118 23.448zm233.924-4.546l-13.035-22.97 2.878-1.65 13.365 22.77-3.208 1.852zm-245.327-1.724l-3.19-1.906 13.694-22.586 2.86 1.705-13.365 22.787zm256.436-4.968l-14.208-22.256 2.77-1.797 14.556 22.037-3.117 2.016zm-267.508-1.906l-3.08-2.072L194.9 455.2l2.77 1.85-14.556 22.055zm278.288-5.4l-15.4-21.45 2.714-1.96L464.4 471.57l-2.988 2.145zm-288.958-2.054l-2.97-2.218 15.968-21.028 2.676 2-15.674 21.247zm299.28-5.756l-16.444-20.66 2.566-2.072 16.793 20.386-2.915 2.347zm-309.527-2.237l-2.86-2.383 17.086-20.148 2.548 2.127-16.774 20.404zm319.48-6.123L464.133 437.8l2.475-2.22 17.82 19.488-2.75 2.475zm-329.325-2.402l-2.714-2.51 18.076-19.25 2.457 2.274-17.82 19.487zm338.803-6.47l-18.516-18.828 2.33-2.328 18.827 18.516-2.64 2.64zm-348.153-2.512l-2.603-2.676 19.102-18.24 2.292 2.365-18.79 18.552zm357.173-6.856l-19.488-17.82 2.22-2.456 19.762 17.526-2.493 2.75zm-366.046-2.64l-2.438-2.787 20-17.25 2.18 2.494-19.744 17.544zm374.57-7.168l-20.386-16.793 2.1-2.567 20.642 16.463-2.346 2.897zm-382.95-2.768l-2.3-2.934 20.9-16.133 2.035 2.585-20.624 16.482zm390.942-7.498l-21.248-15.675 1.962-2.695 21.485 15.363-2.2 3.007zm-398.77-2.86l-2.127-3.025 21.688-15.07 1.906 2.713-21.467 15.382zm406.213-7.792L502.1 394.022l1.796-2.768 22.275 14.19-2.035 3.135zm-413.49-2.97l-1.962-3.135 22.458-13.896 1.76 2.805-22.256 14.226zm420.384-8.103L508.24 384.16l1.67-2.897 22.97 13.035-1.85 3.208zm-427.075-2.988l-1.815-3.245 23.154-12.705 1.613 2.88-22.952 13.07zm433.344-8.415l-23.447-12.155 1.503-2.95 23.63 11.788-1.687 3.318zM97.83 383.077L96.2 379.74l23.796-11.458 1.448 2.95-23.612 11.843zm445.15-8.708l-24.07-10.853 1.356-3.043 24.236 10.504-1.522 3.392zM92.35 371.307l-1.448-3.41 24.364-10.175 1.3 3.043-24.217 10.54zm455.692-8.946l-24.62-9.588 1.19-3.117 24.75 9.222-1.32 3.483zM87.49 359.3l-1.283-3.5 24.877-8.855 1.137 3.098-24.73 9.258zm464.95-9.24l-25.097-8.232 1.026-3.2 25.208 7.865-1.137 3.557zm-469.185-3.08l-1.082-3.52 25.298-7.6 1 3.208-25.207 7.902zm472.925-9.35L530.7 330.7l.843-3.2 25.592 6.508-.953 3.612zm-476.5-3.153l-.898-3.612 25.684-6.16.807 3.21-25.593 6.563zm479.56-9.515l-25.83-5.536.678-3.245 25.904 5.15-.752 3.63zM76.785 321.81l-.697-3.648 25.977-4.804.624 3.264-25.904 5.188zm484.84-9.607l-26.07-4.198.495-3.263 26.142 3.758-.568 3.703zm-487.06-3.226l-.513-3.667 26.18-3.446.458 3.3-26.123 3.813zm488.783-9.68l-26.27-2.786.33-3.282 26.308 2.365-.367 3.703zm-490.322-3.208l-.312-3.722 26.325-2.016.275 3.28-26.29 2.457zm491.35-9.772l-26.38-1.356.147-3.337 26.38 1.01-.146 3.684zm-492.193-3.208l-.128-3.703 26.4-.66.1 3.318-26.38 1.045zm466.124-9.77l-.02-3.318 26.4-.404.02 3.65-26.4.073zM98.4 270.44l-26.4-.31.073-3.704 26.4.697-.073 3.318zm439.596-8.708l-.202-3.336 26.344-1.742.22 3.685-26.362 1.393zm-439.138-2.878l-26.362-1.705.275-3.703 26.326 2.1-.238 3.318zm438.24-8.708l-.367-3.3 26.216-3.135.42 3.703-26.27 2.732zm-437.195-2.86l-26.234-3.098.458-3.685 26.178 3.483-.403 3.3zm435.69-8.653l-.55-3.263 26.014-4.53.605 3.667-26.07 4.125zM101.57 235.8l-26.032-4.492.66-3.648 25.96 4.858-.587 3.282zm431.897-8.562l-.715-3.263 25.74-5.903.806 3.61-25.83 5.555zm-429.623-2.823l-25.758-5.848.862-3.65 25.647 6.29-.75 3.208zm426.89-8.47l-.898-3.208 25.39-7.242 1 3.557-25.483 6.893zm-424.013-2.768l-25.41-7.205 1.045-3.575 25.3 7.6-.935 3.2zm420.695-8.342l-1.063-3.153 24.97-8.616 1.19 3.52-25.097 8.25zm-417.23-2.75l-24.988-8.56 1.228-3.52 24.86 8.928-1.1 3.153zm413.325-8.176l-1.228-3.08 24.474-9.918 1.357 3.428-24.603 9.57zm-409.255-2.732l-24.493-9.88 1.412-3.428 24.345 10.248-1.264 3.06zm404.782-7.938l-1.375-3.006 23.924-11.202 1.54 3.374-24.09 10.834zm-400.144-2.73l-23.943-11.165 1.613-3.39 23.74 11.568-1.41 2.988zm395.12-7.7l-1.54-2.933 23.3-12.448 1.723 3.28-23.484 12.1zM124.1 170.123l-23.32-12.41 1.778-3.264 23.118 12.76-1.577 2.915zm384.324-7.46l-1.687-2.842 22.604-13.676 1.907 3.2-22.824 13.328zm-378.586-2.64l-22.622-13.64 1.943-3.172 22.402 13.97-1.723 2.842zm372.5-7.205l-1.833-2.75 21.852-14.83 2.054 3.08-22.073 14.5zm-366.247-2.585l-21.853-14.813 2.1-3.043 21.67 15.088-1.906 2.768zm359.61-6.948l-1.98-2.658 21.046-15.95 2.218 2.97-21.284 15.638zm-352.847-2.512l-21.045-15.95 2.254-2.934 20.826 16.243-2.035 2.64zm345.752-6.636l-2.126-2.55 20.184-17.03 2.365 2.842-20.423 16.738zm-338.492-2.44l-20.202-17.012 2.42-2.824 19.928 17.343-2.145 2.493zm330.902-6.36l-2.254-2.438 19.267-18.058 2.53 2.73-19.543 17.765zm-323.184-2.328l-19.286-18.04 2.567-2.695 19.01 18.35-2.292 2.384zm315.136-6.05l-2.364-2.3 18.277-19.066 2.658 2.603-18.57 18.773zM165.99 114.74l-18.296-19.048 2.695-2.548 18.02 19.304-2.42 2.292zm298.545-5.72l-2.51-2.2 17.27-19.983 2.787 2.438-17.545 19.745zm-289.965-2.11l-17.288-19.964 2.823-2.42 16.976 20.24-2.51 2.144zm281.056-5.408l-2.603-2.053 16.206-20.844 2.915 2.3-16.518 20.588zm-272.092-1.96L167.31 78.697l2.97-2.273 15.876 21.1-2.622 2.017zm262.852-5.04l-2.73-1.925 15.087-21.67 3.025 2.145-15.38 21.45zm-253.52-1.833l-15.106-21.67 3.062-2.1 14.776 21.89-2.732 1.87zm243.897-4.712l-2.805-1.778 13.933-22.44 3.153 1.98-14.28 22.238zm-234.2-1.668l-13.95-22.42 3.2-1.943 13.585 22.66-2.824 1.705zm224.262-4.345l-2.896-1.613 12.704-23.154 3.264 1.815-13.072 22.953zm-214.27-1.503l-12.76-23.136 3.263-1.76 12.393 23.32-2.896 1.577zM416.56 76.46l-2.97-1.467 11.477-23.796 3.354 1.65-11.86 23.613zm-193.72-1.338l-11.513-23.778 3.337-1.577 11.164 23.924-2.988 1.43zm183.197-3.593l-3.06-1.302 10.193-24.364 3.428 1.467-10.56 24.2zM233.38 70.356L223.152 46l3.4-1.412 9.88 24.493-3.062 1.265zm161.877-3.208l-3.117-1.137 8.873-24.878 3.52 1.283-9.276 24.73zm-151.115-1l-8.928-24.86 3.5-1.228 8.543 24.988-3.116 1.1zm140.115-2.787l-3.2-.972 7.553-25.3 3.557 1.1-7.92 25.17zm-129.08-.843l-7.608-25.3 3.556-1.045 7.223 25.41-3.17.935zm117.915-2.347l-3.227-.807 6.197-25.666 3.593.898-6.563 25.574zm-106.714-.697l-6.233-25.666 3.61-.843 5.85 25.758-3.227.752zm95.384-1.907l-3.245-.623 4.803-25.978 3.667.715-5.225 25.886zm-84.055-.532l-4.858-25.96 3.667-.66 4.455 26.033-3.264.587zm72.652-1.448l-3.3-.458 3.446-26.18 3.667.513-3.814 26.124zm-61.194-.403l-3.483-26.18 3.703-.458 3.062 26.234-3.282.403zm49.682-.972l-3.32-.275 2.054-26.326 3.684.312-2.42 26.29zm-38.132-.238l-2.1-26.326 3.703-.275 1.705 26.363-3.318.238zm26.527-.532l-3.318-.1.66-26.4 3.703.128-1.045 26.38zm-14.94-.092l-.697-26.4 3.685-.073.35 26.4-3.337.073z" fill="#29292e"/><path opacity=".55" d="M318.48 393.35c-66.165 0-119.985-53.82-119.985-119.985S252.314 153.38 318.48 153.38s119.985 53.82 119.985 119.985S384.623 393.35 318.48 393.35zm0-238c-65.09 0-118.036 52.948-118.036 118.036S253.4 391.423 318.48 391.423s118.036-52.948 118.036-118.037c-.02-65.088-52.968-118.036-118.036-118.036z" fill="#202024"/><path d="M117.97 11.604h-1.538V6.24h-5.85v5.364h-1.53V0h1.53v5h5.85V0h1.538v11.604zM128.465 1.26h-3.73v10.345h-1.522V1.26h-3.722V0h8.974v1.26zM132.163 0l3.793 9.468L139.75 0h1.984v11.604h-1.53v-4.52l.143-4.877-3.8 9.396h-1.172l-3.8-9.372.15 4.853v4.52h-1.53V0h1.977zm13.81 10.353h5.5v1.25h-7.037V0h1.538v10.353zm338.82 214.01c-.144 1.227-.598 2.175-1.363 2.845-.76.664-1.772.996-3.037.996-1.37 0-2.47-.492-3.3-1.474s-1.235-2.298-1.235-3.945v-1.116c0-1.08.2-2.027.574-2.845s.935-1.446 1.64-1.88c.707-.44 1.525-.662 2.455-.662 1.233 0 2.22.346 2.965 1.036s1.176 1.637 1.3 2.853h-1.538c-.133-.924-.423-1.593-.87-2.008-.44-.414-1.06-.62-1.857-.62-.978 0-1.745.36-2.303 1.083s-.83 1.75-.83 3.085v1.123c0 1.26.263 2.26.8 3.005s1.262 1.116 2.207 1.116c.85 0 1.5-.192 1.953-.574.457-.388.76-1.06.9-2.016h1.538zm5.505-1.492c-1.313-.377-2.27-.84-2.87-1.387a2.67 2.67 0 0 1-.893-2.04c0-.914.364-1.668 1.092-2.263s1.684-.9 2.853-.9c.797 0 1.506.154 2.128.463a3.53 3.53 0 0 1 1.45 1.275c.346.542.518 1.134.518 1.777h-1.538c0-.7-.223-1.25-.67-1.65s-1.076-.605-1.9-.605c-.755 0-1.344.167-1.77.502-.42.33-.63.8-.63 1.378 0 .473.2.874.598 1.204.404.324 1.086.62 2.048.892s1.72.572 2.263.9c.548.324.95.704 1.212 1.14s.398.948.398 1.538c0 .94-.366 1.695-1.1 2.263-.733.563-1.713.845-2.94.845-.797 0-1.54-.152-2.232-.454-.7-.3-1.225-.728-1.602-1.26s-.558-1.134-.558-1.8h1.538c0 .702.258 1.257.774 1.666s1.214.606 2.08.606c.807 0 1.426-.165 1.857-.494s.645-.78.645-1.347-.2-1.007-.598-1.315c-.398-.314-1.12-.622-2.167-.925zm9.7 0c-1.313-.377-2.27-.84-2.87-1.387a2.67 2.67 0 0 1-.893-2.04c0-.914.364-1.668 1.092-2.263s1.684-.9 2.853-.9c.797 0 1.506.154 2.128.463a3.57 3.57 0 0 1 1.45 1.275c.346.542.518 1.134.518 1.777h-1.538c0-.7-.223-1.25-.67-1.65s-1.076-.605-1.9-.605c-.754 0-1.344.167-1.77.502-.42.33-.63.8-.63 1.378 0 .473.2.874.598 1.204.404.324 1.086.62 2.048.892s1.72.572 2.263.9c.548.324.95.704 1.212 1.14s.398.948.398 1.538c0 .94-.366 1.695-1.1 2.263-.733.563-1.713.845-2.94.845-.797 0-1.54-.152-2.232-.454-.7-.3-1.225-.728-1.602-1.26s-.558-1.134-.558-1.8h1.54c0 .702.257 1.257.773 1.666s1.214.606 2.08.606c.807 0 1.426-.165 1.857-.494s.645-.78.645-1.347-.2-1.007-.598-1.315c-.398-.314-1.12-.622-2.167-.925zM83.292 494.753h1.538v8.217c0 1.1-.335 1.98-1.004 2.606-.664.627-1.55.94-2.662.94-1.153 0-2.05-.294-2.694-.884s-.964-1.416-.964-2.48h1.53c0 .664.18 1.182.542 1.554.367.372.895.558 1.586.558.632 0 1.142-.2 1.53-.597s.592-.957.598-1.674v-8.24zm9.236 11.604c-.085-.17-.154-.473-.207-.908-.685.712-1.504 1.067-2.455 1.067-.85 0-1.55-.24-2.096-.717-.542-.483-.813-1.094-.813-1.833 0-.898.34-1.594 1.02-2.088.685-.5 1.647-.75 2.885-.75h1.435v-.677c0-.516-.154-.925-.462-1.228s-.762-.462-1.363-.462c-.526 0-.967.133-1.323.4s-.534.587-.534.964h-1.482c0-.43.15-.845.454-1.243.308-.404.723-.723 1.243-.957.526-.234 1.102-.35 1.73-.35.993 0 1.772.25 2.335.75.563.494.855 1.177.877 2.048v3.97c0 .8.1 1.42.303 1.9v.127H92.53zm-2.447-1.124a2.59 2.59 0 0 0 1.315-.358c.414-.24.715-.55.9-.933v-1.77H91.14c-1.806 0-2.7.53-2.7 1.586 0 .462.154.824.462 1.084s.704.4 1.188.4zm8.72-.876l2.136-6.623h1.507l-3.093 8.623h-1.124l-3.124-8.623h1.506l2.192 6.623zm10.257 2c-.085-.17-.154-.473-.207-.908-.685.712-1.503 1.067-2.455 1.067-.85 0-1.548-.24-2.096-.717a2.35 2.35 0 0 1-.812-1.833c0-.898.34-1.594 1.02-2.088s1.647-.75 2.885-.75h1.434v-.677c0-.516-.154-.925-.462-1.228s-.762-.462-1.363-.462c-.526 0-.967.133-1.323.4s-.534.587-.534.964h-1.482c0-.43.15-.845.454-1.243.308-.404.723-.723 1.243-.957.526-.234 1.103-.35 1.73-.35.993 0 1.772.25 2.335.75.563.494.855 1.177.877 2.048v3.97c0 .8.1 1.42.302 1.9v.127h-1.546zm-2.446-1.124c.462 0 .9-.12 1.315-.358s.714-.55.9-.933v-1.77h-1.155c-1.807 0-2.7.53-2.7 1.586 0 .462.154.824.462 1.084s.704.4 1.188.4zm9.65-4.048c-1.312-.377-2.27-.84-2.87-1.387a2.65 2.65 0 0 1-.893-2.04c0-.914.364-1.668 1.092-2.263.733-.6 1.684-.9 2.853-.9.797 0 1.506.154 2.128.462a3.53 3.53 0 0 1 1.45 1.275c.35.542.518 1.135.518 1.778H119c0-.702-.223-1.252-.67-1.65-.446-.404-1.076-.606-1.9-.606-.754 0-1.344.168-1.77.502s-.63.8-.63 1.38c0 .473.2.874.598 1.203.404.325 1.087.622 2.048.893.967.27 1.722.57 2.264.9.547.324.95.704 1.2 1.14.266.436.398.95.398 1.538a2.72 2.72 0 0 1-1.099 2.264c-.734.563-1.714.844-2.94.844-.797 0-1.54-.15-2.232-.454s-1.224-.728-1.602-1.26c-.37-.53-.557-1.134-.557-1.8h1.538c0 .7.257 1.256.773 1.666.52.403 1.214.605 2.08.605.807 0 1.426-.164 1.857-.494s.645-.778.645-1.347-.2-1.007-.597-1.315-1.12-.62-2.168-.924zm9.5 4.128a2.12 2.12 0 0 0 1.378-.478 1.68 1.68 0 0 0 .654-1.196h1.395c-.027.495-.197.965-.5 1.4s-.734.802-1.26 1.068a3.59 3.59 0 0 1-1.657.398c-1.175 0-2.1-.4-2.806-1.17-.7-.786-1.036-1.86-1.036-3.22v-.247c0-.84.154-1.586.463-2.24s.75-1.16 1.322-1.522c.58-.362 1.262-.542 2.05-.542.967 0 1.77.3 2.406.868.643.58.986 1.33 1.03 2.256h-1.395c-.043-.558-.255-1.015-.638-1.37-.377-.36-.844-.542-1.402-.542-.75 0-1.33.27-1.746.813-.4.536-.613 1.315-.613 2.335v.28c0 .993.204 1.76.613 2.295s.994.805 1.754.805zm9.252-6.256c-.223-.037-.465-.056-.725-.056-.967 0-1.623.412-1.968 1.235v6.12h-1.475v-8.623h1.435l.024.996c.483-.77 1.17-1.155 2.056-1.155.287 0 .505.037.653.1v1.37zm2.966 7.3h-1.474v-8.623h1.474v8.623zm-1.594-10.9c0-.24.072-.44.215-.606.15-.165.367-.247.654-.247s.505.082.653.247a.87.87 0 0 1 .223.606c0 .24-.074.438-.223.597s-.366.24-.653.24-.505-.08-.654-.24a.86.86 0 0 1-.215-.597zm11.244 6.683c0 1.313-.3 2.37-.9 3.172s-1.414 1.203-2.44 1.203c-1.047 0-1.87-.332-2.47-.996v4.152h-1.474v-11.938h1.347l.072.956c.6-.743 1.434-1.115 2.502-1.115 1.036 0 1.854.4 2.455 1.17s.908 1.868.908 3.26v.135zm-1.474-.167c0-.973-.207-1.74-.622-2.303s-.983-.845-1.705-.845c-.893 0-1.562.396-2 1.187v4.12c.44.786 1.116 1.18 2.025 1.18.706 0 1.267-.28 1.68-.837.42-.563.63-1.397.63-2.502zm5.354-6.327v2.088h1.6v1.14h-1.6v5.347c0 .346.072.606.216.78s.387.255.733.255a3.61 3.61 0 0 0 .701-.095v1.195c-.388.106-.765.16-1.132.16-.658 0-1.155-.2-1.5-.597s-.502-.965-.502-1.698v-5.347h-1.57v-1.14h1.57v-2.088h1.474z" fill="#323238"/><rect opacity=".4" width="358.852" height="372.869" rx="5" transform="matrix(.866183 .499727 -.866183 .499727 325.169 143.34)" fill="#000"/><g filter="url(#A)"><rect width="358.852" height="372.869" rx="5" transform="matrix(.86586 .500286 -.86586 .500286 325.169 81)" fill="#202024"/></g><g clip-path="url(#B)"><path d="M439.18 223.554l-10.088-20.17c-.352-.67-.985-1.28-1.844-1.776s-1.916-.86-3.08-1.064l-34.866-5.767c-1.1-.193-2.27-.216-3.39-.067s-2.157.464-3.003.915l-25.054 14.454c-.83.493-1.407 1.11-1.666 1.78s-.192 1.368.197 2.015l2.817 5.53 5.453 10.954 1.636 3.37a2.14 2.14 0 0 0 .454.684l.182.316.092.053c.904.92 2.366 1.612 4.104 1.946l34.866 5.767a11.09 11.09 0 0 0 3.491.106c1.16-.15 2.227-.48 3.086-.954l25.054-14.454c.777-.48 1.33-1.066 1.602-1.703a2.28 2.28 0 0 0-.043-1.934zm-60.44-2.48l-11.23-.254c-.07-.001-.14-.01-.203-.03a.53.53 0 0 1-.162-.077l-.092-.053c-.02-.02-.03-.043-.03-.066s.008-.046.026-.067.045-.038.077-.052.07-.022.1-.025l9.778-3.222a5.68 5.68 0 0 1 1.711-.312c.606-.02 1.2.05 1.757.202l.182-.001c.137.045.256.105.35.178a.59.59 0 0 1 .196.243l.272 1.002a3.84 3.84 0 0 0 .453.999.31.31 0 0 1 .04.278c-.032.093-.1.18-.223.248v.21c-.358.26-.818.468-1.34.606s-1.096.204-1.67.2v.001zm11.32.412c-.09-.052-.183.001-.275-.052l-1.64-1.158c-.086-.064-.197-.116-.323-.152a1.53 1.53 0 0 0-.406-.057l-3.835-.103a.75.75 0 0 1-.204-.028.51.51 0 0 1-.162-.077c-.533-.813-.898-1.66-1.088-2.523-.001-.105.001-.21.182-.21l3.3-1.16a.89.89 0 0 0 .305-.153c.08-.064.132-.138.152-.216l.55-1.475c.092-.054.001-.106.092-.158.183-.106.457-.16.73-.317l.09-.052s.183-.001.09.052c.274.8 1.634 4.002 1.634 4.002l1.634 4.003c-.001.04-.018.08-.05.117a.39.39 0 0 1-.133.093l-.634-.374zm28.95-2.604l-.001.104 1.55 1.21.1.052c.273.263.273.79-1.19.896l-18.083 1.595c-.18-.02-.34-.076-.456-.158l-1.18-2.896c-.06-.14-.187-.267-.363-.37a1.83 1.83 0 0 0-.639-.21l-1.643-.21c-.242-.036-.463-.108-.64-.2s-.302-.23-.363-.37c-.068-.29-.322-.55-.7-.736s-.884-.28-1.388-.263c-1.127-.08-2.182-.36-3.016-.804s-1.406-1.027-1.635-1.67l-1.543-3.844.001-.21c-.02-.132.008-.266.08-.392a1.04 1.04 0 0 1 .345-.341 1.95 1.95 0 0 1 .553-.234c.2-.055.437-.085.667-.087.484-.066.993-.02 1.42.126s.734.385.86.662l.363.736.095.055c.001.106.183.106.275.052l1.277-.526c.09-.053.183-.106.093-.158l-.09-.158c-.055-.167-.002-.34.15-.485s.4-.255.67-.305c.132-.02.27-.027.406-.017s.266.034.385.074.222.09.306.153.144.134.18.2l2.18 5.16.092.053c0 .105.182.105.364.105l13.608-1.222c.265-.02.534.006.776.07s.447.167.593.296l1.276.948.82.684c-.092.053.09.052.09.052.182 0 .182 0 .09-.052-.042-.18.04-.365.227-.512s.467-.247.78-.28l4.566-.425c.242-.01.484.012.707.067a1.67 1.67 0 0 1 .571.248l3.1 2.42c.07.04.122.09.153.146a.23.23 0 0 1 .029.17v.105a.29.29 0 0 1-.082.138c-.043.042-.1.08-.168.11a.92.92 0 0 1-.228.063 1.06 1.06 0 0 1-.252.006l-5.845.532-.09.053c-.182-.424-.274-.37-.182-.213l-.001.001z" fill="#04d361"/><g fill="#e6e6e6"><path d="M431.274 207.914c5.017.367 7.03.996 9.4 2.363.695.4 1.225.886 1.55 1.42.9 1.896-1.745 4.48-7.504 7.066l1.366 2.683c8.317-3.64 11.98-7.332 10.435-10.544-.492-1.002-1.434-1.9-2.732-2.632-3.193-1.842-6.66-2.787-13.872-3.255.54 1.054.9 2 1.358 2.898zm-66.834-1.632c-2.182-3.58-1.54-5.1.746-6.428 2.378-1.372 7.035-1.322 13.332-.01l3.658-2.1c-9.034-2.153-16.248-2.094-20.18.175-4.023 2.32-4.76 5.166-1.03 10.38l3.473-2.005zm34.265-9.985c4.483-3.217 7.497-3.904 10.877-3.33.968.136 1.832.45 2.463.894 2.37 1.368 3.826 3.684 4.457 6.58l4.652.8c-.72-4.1-2.813-7.426-6.002-9.266-1.25-.75-2.825-1.293-4.56-1.576-5.66-.84-10.593.324-16.814 5.176 1.825.207 3.376.47 4.928.73zm35.715 32.633l-3.475 2.005c2.182 3.58 1.54 5.108-.746 6.428-2.378 1.37-7.035 1.322-13.333.01l-3.657 2.1c9.035 2.153 16.25 2.094 20.18-.175 4.022-2.322 4.852-5.114 1.03-10.378zm-70.128.373c-5.018-.368-7.03-.996-9.4-2.363-.695-.4-1.224-.886-1.55-1.42-.996-1.946 1.838-4.532 7.505-7.066-.455-.894-1.002-1.84-1.363-2.8-8.232 3.6-11.887 7.28-10.435 10.438.492 1.002 1.434 1.9 2.732 2.632 3.1 1.894 6.658 2.892 13.87 3.36l-1.36-2.8zm32.388 11.617c-4.483 3.216-7.588 3.85-10.877 3.33-.968-.136-1.832-.45-2.463-.894-2.37-1.368-3.826-3.685-4.55-6.635l-4.744-.84c.72 4.215 2.722 7.478 6.004 9.372 1.252.75 2.826 1.293 4.562 1.577 5.66.838 10.684-.273 16.814-5.176l-4.747-.732z"/><path opacity=".5" d="M251.216 252.565l7.607-4.39 2.657 1.533c.786.397 1.334.927 1.565 1.515.057.24.01.486-.137.714s-.39.432-.704.594c-.344.206-.787.347-1.272.404s-.978.018-1.422-.1c.284.26.4.567.33.87-.084.314-.348.603-.75.82-.29.192-.656.342-1.066.44s-.852.136-1.293.117c-.99-.097-1.895-.385-2.565-.817l-2.95-1.702zm4.875-1.01l-2.053 1.184 1.34.773c.29.19.7.312 1.125.345.194.008.387-.01.567-.052a1.54 1.54 0 0 0 .472-.189 1.08 1.08 0 0 0 .384-.276c.09-.107.135-.225.133-.345a.53.53 0 0 0-.143-.342c-.093-.107-.227-.2-.392-.27l-1.432-.827zm1.107-.64l1.157.667c.802.447 1.512.493 2.128.137a.92.92 0 0 0 .349-.27.45.45 0 0 0 .096-.332c-.11-.264-.36-.5-.72-.677l-1.092-.63-1.92 1.105zm15.02 9.576c-.664.4-1.472.7-2.368.908-.778.17-1.626.206-2.438.1-.82-.114-1.566-.36-2.15-.7-.603-.336-1.03-.763-1.23-1.233-.188-.47-.133-.96.16-1.414.327-.512.85-.976 1.53-1.357l.375-.217c.667-.4 1.48-.71 2.38-.907.785-.172 1.64-.207 2.456-.1.816.115 1.56.36 2.142.71.604.336 1.03.765 1.228 1.236.186.47.126.964-.173 1.416-.34.52-.874.987-1.567 1.37l-.345.198zm-1.24-1.113c.677-.343 1.16-.794 1.392-1.295.067-.192.047-.39-.057-.577s-.29-.353-.54-.485c-.228-.143-.515-.25-.835-.31a3.36 3.36 0 0 0-.992-.036c-.864.128-1.643.402-2.236.787l-.372.214c-.667.343-1.147.79-1.38 1.29a.68.68 0 0 0 .043.586c.103.19.29.36.544.494.227.143.515.25.836.3a3.36 3.36 0 0 0 .992.031c.862-.134 1.64-.4 2.232-.795l.373-.212zm12.938 7.862c-.664.4-1.473.7-2.368.908-.78.172-1.627.206-2.438.1-.82-.114-1.566-.36-2.15-.7-.603-.336-1.028-.763-1.23-1.233-.185-.47-.128-.96.165-1.4.326-.513.85-.977 1.53-1.358l.375-.216c.667-.4 1.48-.71 2.38-.908.784-.172 1.64-.206 2.456-.1.816.115 1.56.36 2.142.71.604.337 1.03.765 1.228 1.236.186.47.125.964-.173 1.417-.34.518-.874.986-1.567 1.37l-.35.195zm-1.24-1.113c.676-.343 1.16-.794 1.39-1.295.067-.192.048-.39-.057-.577s-.3-.353-.54-.485c-.227-.143-.515-.25-.834-.31s-.662-.073-.993-.035c-.864.127-1.642.4-2.236.786l-.37.214c-.668.343-1.148.79-1.38 1.29a.68.68 0 0 0 .042.586c.103.19.29.36.545.494.227.143.515.25.835.3a3.36 3.36 0 0 0 .992.031c.863-.133 1.64-.4 2.232-.795l.374-.212zm14.68 5.745l-2.323-1.34-6.337 3.656-1.567-.905 6.337-3.656-2.294-1.323 1.27-.732 6.18 3.564-1.264.736zm7.224 8.562c-.378.205-.825.363-1.313.466s-1.007.145-1.524.127c-1.098-.066-2.114-.362-2.855-.833-.452-.237-.805-.53-1.032-.86s-.32-.68-.276-1.033c.175-.79.84-1.515 1.87-2.045l.465-.27c.65-.39 1.443-.696 2.32-.892a6.95 6.95 0 0 1 2.384-.105c.806.114 1.538.358 2.112.703.805.422 1.307 1.002 1.4 1.627.043.617-.335 1.22-1.053 1.678l-1.563-.902c.395-.227.63-.53.66-.852-.06-.314-.324-.603-.74-.807-.213-.14-.483-.244-.786-.306s-.63-.076-.946-.045c-.828.134-1.572.404-2.14.776l-.575.332c-.67.333-1.164.768-1.43 1.254-.062.184-.038.374.068.55s.292.334.537.456c.358.243.86.398 1.4.434.54-.01 1.052-.136 1.435-.356l1.566.9zm8.675 6.12l-2.74-1.58-2.088.6-1.658-.957 10.43-2.76 1.448.835-4.766 6.027-1.662-.96 1.037-1.205zm-1.045-2.073l1.893 1.092L316 283.38l-3.787 1.1zm16.36 3.935l-3.566 4.307 7.454-2.065 2.052 1.184-7.606 4.388-1.568-.904 2.08-1.2 3.746-1.98-7.72 2.1-1.074-.62 3.624-4.443-3.427 2.158-2.08 1.2-1.566-.903 7.606-4.39 2.044 1.177zm8.27 10.458l-2.68 1.546-1.562-.9 7.607-4.388 2.958 1.707c.53.292.936.65 1.2 1.048.22.348.258.727.107 1.09-.16.365-.495.697-.965.96-.318.2-.71.357-1.15.457s-.9.14-1.38.12c-1.066-.083-2.044-.383-2.757-.847l-1.37-.8zm1.27-.732l1.395.805c.317.2.76.345 1.24.377.22.003.436-.022.637-.072a1.75 1.75 0 0 0 .526-.221c.172-.09.312-.2.4-.322s.155-.254.166-.388a.66.66 0 0 0-.145-.397 1.25 1.25 0 0 0-.407-.331l-1.434-.827-2.387 1.376z"/><path d="M268.02 233.273c-2.573.095-5.143-.21-7.44-.88-2.786-.774-5.315-1.822-7.472-3.1-2.32-1.28-4-2.895-4.87-4.68-.78-1.714-.642-3.526.394-5.197 1.207-1.918 3.152-3.654 5.688-5.078l1.944-1.122c2.485-1.504 5.505-2.68 8.85-3.445 2.85-.643 5.967-.772 8.94-.37 3.06.453 5.834 1.39 8.012 2.708 3.018 1.544 4.972 3.664 5.505 5.973.188 2.206-1.13 4.37-3.672 6.026l-5.716-3.298c1.24-.863 1.9-1.954 1.86-3.072-.243-1.077-1.148-2.066-2.552-2.787-.843-.54-1.913-.945-3.106-1.178s-2.473-.285-3.713-.15c-3.21.49-6.1 1.52-8.3 2.96l-1.825 1.053c-2.998 1.73-4.693 3.363-5.087 4.9-.185.775-.037 1.565.433 2.3s1.245 1.39 2.26 1.908c2.207 1.273 4.25 1.908 6.133 1.906l4.928-2.843-5.345-3.084 4.34-2.504 11.22 6.473-11.407 6.58zm10.71-2.135c1.91-1.144 4.256-2.017 6.848-2.55 2.357-.483 4.908-.55 7.328-.195 2.537.396 4.836 1.184 6.65 2.28 1.333.71 2.407 1.568 3.157 2.522s1.164 1.985 1.214 3.033c-.033 2.185-1.507 4.283-4.12 5.868l-1.414.862c-2.73 1.735-6.517 2.794-10.564 2.954-1.924.033-3.836-.175-5.607-.607s-3.357-1.08-4.653-1.9c-1.422-.747-2.548-1.663-3.302-2.684s-1.12-2.125-1.07-3.237c.303-2.38 2.196-4.6 5.28-6.196l.254-.148zm5.246 3.502c-1.725.876-2.942 2.036-3.488 3.323-.157.5-.088 1.034.2 1.523s.788.928 1.45 1.275c.6.375 1.35.657 2.187.82s1.732.206 2.604.12c2.418-.367 4.586-1.152 6.21-2.25 1.71-.875 2.912-2.034 3.44-3.317.165-.51.103-1.037-.18-1.53s-.778-.935-1.44-1.287c-.602-.377-1.36-.66-2.207-.82s-1.748-.194-2.624-.097c-2.39.378-4.532 1.157-6.153 2.24h.001zm30.143 20.743c.517-.268.914-.604 1.156-.98s.32-.78.23-1.176c-.47-1.238-1.26-2.427-2.344-3.527-1.157-1.255-2.122-2.565-2.884-3.917-1.485-2.88-.74-5.175 2.232-6.9 1.462-.867 3.367-1.44 5.434-1.633 2.235-.186 4.514-.006 6.576.52 2.44.597 4.647 1.47 6.493 2.568 1.906 1.06 3.386 2.35 4.333 3.78.84 1.256 1.043 2.626.582 3.95-.48 1.3-1.62 2.487-3.273 3.413l-5.874-3.39c.6-.31 1.076-.692 1.39-1.12s.46-.9.43-1.354c-.2-1.016-1.047-1.952-2.375-2.628-1.114-.725-2.61-1.22-4.26-1.404-.654-.06-1.323-.03-1.95.093s-1.195.33-1.653.608c-.466.282-.797.63-.96 1.007a1.34 1.34 0 0 0 .026 1.149c.5 1.19 1.293 2.335 2.354 3.396 2.03 1.936 3.245 4.12 3.552 6.377.03.846-.247 1.686-.812 2.468s-1.407 1.487-2.47 2.072c-1.08.675-2.433 1.187-3.936 1.49s-3.112.39-4.684.252c-3.725-.406-7.114-1.506-9.647-3.13-2.087-1.172-3.72-2.587-4.786-4.15-.97-1.355-1.25-2.84-.812-4.287.48-1.383 1.685-2.65 3.45-3.628l5.898 3.403c-3.154 1.82-2.85 3.814.908 5.982 1.085.704 2.528 1.192 4.124 1.394.647.063 1.312.03 1.933-.093s1.178-.336 1.62-.616v-.001zm35.24-1.553l-5.222 3.012 3.62 2.1-4.16 2.4-3.622-2.09-10.602 6.116c-.653.314-1.092.75-1.24 1.234.04.25.166.495.375.717s.493.416.837.57a13.53 13.53 0 0 0 1.802.881l-4.3 2.48c-1.45-.444-2.778-1.01-3.937-1.682-3.968-2.3-3.983-4.615-.045-6.977l11.448-6.605-3.096-1.786 4.162-2.4 3.093 1.784 5.223-3.013 5.663 3.266zm-7.415 26.26c.312-.514.763-.995 1.336-1.427-1.42.05-2.843-.082-4.164-.386s-2.5-.772-3.48-1.37c-1.952-1.048-3.15-2.482-3.353-4.018-.1-.703.07-1.41.504-2.07s1.116-1.256 2-1.745c.954-.608 2.157-1.07 3.5-1.34a14.44 14.44 0 0 1 4.18-.21c2.868.266 5.882 1.302 9.04 3.11l2.603 1.502 1.217-.702c.894-.466 1.464-1.104 1.602-1.794.008-.358-.122-.713-.38-1.038s-.64-.614-1.115-.844c-.757-.492-1.797-.8-2.928-.897-.502-.023-1.005.022-1.473.13s-.886.274-1.225.49l-5.66-3.264c1.233-.71 2.83-1.173 4.552-1.316 1.926-.16 3.89-.01 5.676.43 2.09.497 3.98 1.237 5.553 2.172 2.363 1.224 3.873 2.903 4.245 4.724.085.846-.163 1.693-.726 2.477s-1.423 1.485-2.52 2.05l-9.208 5.312c-1.645.862-2.923 1.932-3.732 3.125l-.33.2-5.714-3.3zm-.736-4.975c.796.47 1.782.816 2.87 1 .992.19 2.06.204 3.068.038l3.65-2.107-2.114-1.22c-2.832-1.634-5.322-1.938-7.468-.9l-.348.178c-.34.184-.604.408-.778.657s-.253.516-.23.783c.084.604.567 1.165 1.348 1.568l.003.003zm22.946 12.967c.886.558 2.1.904 3.41.97.612.02 1.225-.034 1.797-.162s1.09-.325 1.52-.578l5.306 3.06c-1.408.81-3.2 1.366-5.13 1.605-1.984.245-4.045.17-5.955-.22-2.052-.4-3.9-1.1-5.426-1.986-1.4-.73-2.506-1.627-3.244-2.63s-1.087-2.085-1.026-3.175c.382-2.36 2.303-4.548 5.374-6.125l.38-.22c2.7-1.726 6.428-2.804 10.437-3.017 1.888-.046 3.77.15 5.51.57s3.298 1.058 4.562 1.866c2.453 1.284 3.928 3.075 4.106 4.985.025.914-.283 1.82-.902 2.663s-1.54 1.6-2.697 2.226l-5.306-3.06c1.007-.563 1.602-1.326 1.662-2.133.01-.392-.122-.78-.4-1.14s-.664-.68-1.163-.946c-.545-.354-1.238-.62-2.013-.777s-1.607-.194-2.417-.113c-2.213.372-4.19 1.108-5.7 2.12l-.59.34c-1.763.868-3.052 2.012-3.71 3.293-.137.473-.063.96.217 1.4s.753.855 1.378 1.17l.002.004zm24.133 8.916l-4.077.004-6.48 3.738-5.665-3.27 30.158-17.4 5.66 3.265-16.708 9.64 2.506-.186 11.805-.552 6.793 3.92-16.5.692-4.066 11.948-6.5-3.75 3.085-8.05z"/></g></g><path d="M163.128 249.436l-4.758-2.745-13.195 7.613-1.94-1.12 13.195-7.612-4.748-2.74 1.607-.927 11.446 6.604-1.606.927zm2.77 6.08c-.237-.192-.522-.384-.854-.575-1.233-.712-2.596-.892-4.087-.54l-7.807 4.505-1.88-1.085 11-6.346 1.83 1.055-1.24.75c1.6-.2 2.965.01 4.097.663.366.2.597.4.7.563l-1.748 1zm-3.198 9.128c-1.5-.86-2.216-1.84-2.175-2.944.047-1.106.9-2.133 2.53-3.08l.346-.2c1.1-.63 2.27-1.072 3.538-1.326 1.28-.254 2.534-.305 3.76-.152 1.24.152 2.297.48 3.172.985 1.43.825 2.07 1.738 1.92 2.74s-1.1 2.008-2.857 3.02l-.782.452-7.452-4.3c-1.057.64-1.62 1.33-1.687 2.064-.055.735.386 1.373 1.32 1.912a5.9 5.9 0 0 0 2.094.739c.732.1 1.495.135 2.288.077l.254 1.178c-2.338.286-4.43-.103-6.273-1.167zm9.627-5.824c-.76-.437-1.674-.645-2.744-.62-1.064.02-2.155.28-3.274.786l5.5 3.178.142-.082c.902-.582 1.383-1.157 1.444-1.724.068-.57-.3-1.083-1.078-1.537zm-.707 10.74l-1.88-1.085 11-6.346 1.88 1.085-11 6.346zm11.884-9.202c.305-.176.654-.272 1.047-.288.4-.01.782.088 1.148.3s.54.432.52.662-.183.434-.488.6a2.26 2.26 0 0 1-1.047.276 2.16 2.16 0 0 1-1.139-.305c-.366-.2-.542-.43-.528-.657.02-.223.183-.422.488-.598zm4.123 5.745l-1.322.833c1.898-.125 3.524.204 4.88.986 2.324 1.34 2.185 2.774-.417 4.298l-7.27 4.194-1.88-1.085 7.278-4.2c.786-.462 1.2-.906 1.2-1.332.027-.422-.335-.85-1.088-1.284-.6-.352-1.308-.567-2.094-.645a7.96 7.96 0 0 0-2.358.117l-7.838 4.522-1.88-1.085 11-6.346 1.78 1.026zm5.707 15.985c.1-.188.407-.46.895-.82-1.782.02-3.28-.32-4.493-1.02-1.085-.625-1.67-1.315-1.76-2.07-.074-.754.36-1.403 1.3-1.947 1.146-.66 2.467-.923 3.965-.786 1.5.137 3.056.66 4.635 1.572l1.83 1.056.864-.5c.658-.38.983-.794.976-1.243 0-.454-.383-.902-1.148-1.343a5.22 5.22 0 0 0-2.196-.681c-.793-.066-1.43.04-1.9.317l-1.9-1.1c.55-.317 1.27-.5 2.165-.58a9.64 9.64 0 0 1 2.806.21 9.32 9.32 0 0 1 2.653 1.014c1.267.73 1.942 1.488 2.023 2.27.088.778-.4 1.496-1.494 2.152l-5.063 2.92c-1 .583-1.684 1.12-2.023 1.613l-.162.094-1.973-1.138zm-1.687-2.627c.6.34 1.3.574 2.135.703s1.613.122 2.338-.023l2.257-1.302-1.474-.85c-2.305-1.33-4.13-1.605-5.48-.826-.6.34-.854.72-.793 1.137s.4.806 1.017 1.162zm19.198.04l-1.17.733c1.755-.082 3.317.27 4.686 1.06 1.538.888 1.996 1.832 1.372 2.833.895-.094 1.796-.066 2.704.082a7.62 7.62 0 0 1 2.572.921c2.413 1.392 2.362 2.837-.152 4.334l-7.37 4.252-1.88-1.085 7.258-4.187c.787-.454 1.193-.896 1.22-1.326.034-.434-.372-.895-1.22-1.384-.698-.403-1.487-.616-2.368-.64a5.38 5.38 0 0 0-2.481.504l-7.3 4.2-1.9-1.1 7.207-4.158c1.6-.923 1.616-1.836.05-2.74-1.234-.712-2.603-.895-4.107-.55l-8.03 4.633-1.88-1.085 11-6.346 1.78 1.027zm10.058 18.728c-1.5-.86-2.216-1.842-2.175-2.944.047-1.107.9-2.133 2.53-3.08l.346-.2a11.59 11.59 0 0 1 3.538-1.325c1.28-.254 2.534-.305 3.76-.153 1.24.153 2.297.48 3.172.986 1.43.825 2.07 1.738 1.92 2.74s-1.1 2.007-2.857 3.02l-.782.452-7.452-4.3c-1.057.64-1.62 1.33-1.687 2.064-.055.735.386 1.373 1.32 1.912a5.9 5.9 0 0 0 2.094.739c.732.1 1.495.135 2.287.076l.255 1.18c-2.338.286-4.43-.103-6.273-1.167zm9.627-5.824c-.76-.438-1.674-.645-2.744-.62-1.064.02-2.156.28-3.274.785l5.5 3.18.142-.082c.902-.582 1.383-1.157 1.444-1.724.068-.57-.292-1.083-1.078-1.537zm10.04 4.243l-1.322.833c1.898-.125 3.524.203 4.88.985 2.324 1.342 2.185 2.775-.417 4.3l-7.27 4.194-1.88-1.085 7.278-4.2c.787-.462 1.2-.906 1.2-1.332.027-.422-.335-.85-1.088-1.284-.6-.352-1.308-.567-2.094-.645a7.96 7.96 0 0 0-2.358.117l-7.838 4.522-1.88-1.085 11-6.346 1.78 1.026zm15.13 5.657l-2.663 1.537 2.053 1.184-1.453.84-2.054-1.185-6.82 3.936c-.44.254-.68.498-.722.733-.034.23.17.473.6.727.217.125.556.274 1.017.446l-1.525.88c-.63-.207-1.18-.445-1.647-.715-.84-.485-1.22-.997-1.14-1.537s.6-1.08 1.525-1.618l6.82-3.936-2.002-1.155 1.453-.84 2.003 1.156 2.664-1.537 1.88 1.085zm-4.295 6.824a11.5 11.5 0 0 1 3.538-1.314c1.287-.25 2.54-.293 3.76-.13 1.227.168 2.325.532 3.294 1.1 1.497.864 2.2 1.86 2.073 3-.108 1.134-1.023 2.197-2.744 3.2l-.132.077c-1.07.617-2.24 1.053-3.508 1.307a11.11 11.11 0 0 1-3.741.129c-1.233-.164-2.344-.53-3.334-1.102-1.5-.86-2.182-1.857-2.074-3 .115-1.13 1.027-2.188 2.735-3.173l.132-.076zm1.667 1.22c-1.22.703-1.918 1.43-2.094 2.18-.17.755.22 1.406 1.17 1.953.956.552 2.087.774 3.395.67 1.315-.1 2.647-.553 3.996-1.33 1.206-.696 1.894-1.426 2.063-2.188.183-.763-.2-1.417-1.15-1.965-.928-.535-2.046-.754-3.354-.657s-2.65.544-4.026 1.338zm12.728 13.547l-1.88-1.085 11-6.346 1.88 1.085-11 6.346zm11.884-9.202c.305-.176.654-.272 1.047-.287.4-.012.783.088 1.15.3s.54.432.518.663-.183.434-.488.6a2.26 2.26 0 0 1-1.047.275c-.393.008-.772-.094-1.138-.305s-.543-.43-.53-.657c.02-.222.183-.422.488-.598zm4.11 5.74l-1.17.733c1.755-.082 3.317.272 4.686 1.062 1.538.887 1.996 1.83 1.372 2.832.895-.094 1.796-.066 2.705.082s1.772.46 2.57.92c2.413 1.392 2.362 2.837-.152 4.334l-7.37 4.252-1.88-1.085 7.258-4.187c.787-.454 1.193-.896 1.22-1.326.034-.434-.372-.895-1.22-1.384-.698-.402-1.487-.616-2.368-.64-.874-.027-1.7.14-2.48.504l-7.3 4.2-1.9-1.1 7.207-4.158c1.6-.922 1.616-1.835.05-2.74-1.233-.7-2.602-.895-4.107-.55l-8.03 4.633-1.88-1.085 11-6.346 1.78 1.027zm10.06 18.728c-1.5-.86-2.217-1.84-2.176-2.944.047-1.106.9-2.133 2.53-3.08l.346-.2c1.1-.63 2.27-1.072 3.538-1.326a11.75 11.75 0 0 1 3.761-.152c1.24.152 2.297.48 3.172.985 1.43.825 2.07 1.738 1.92 2.74s-1.1 2.008-2.857 3.02l-.782.452-7.452-4.3c-1.057.64-1.62 1.33-1.687 2.064-.055.735.386 1.373 1.32 1.912a5.88 5.88 0 0 0 2.094.739c.732.1 1.495.135 2.288.077l.254 1.178c-2.338.286-4.43-.103-6.272-1.167zm9.626-5.824c-.76-.437-1.674-.645-2.744-.62-1.064.02-2.155.28-3.274.786l5.5 3.178.142-.082c.902-.582 1.383-1.157 1.444-1.724.068-.57-.3-1.083-1.078-1.537zm11.9 7.26a6.86 6.86 0 0 0-.854-.575c-1.233-.7-2.596-.9-4.087-.54l-7.807 4.504-1.88-1.085 11-6.346 1.83 1.056-1.24.75c1.6-.212 2.965.01 4.097.662.366.2.597.4.692.563l-1.75 1zm1.956 8.507c.508-.293.708-.63.6-1.015-.095-.383-.52-.9-1.27-1.577s-1.257-1.242-1.535-1.73c-.27-.485-.346-.92-.224-1.302.13-.38.464-.726 1.007-1.038.9-.52 2.043-.74 3.425-.663 1.4.082 2.677.465 3.863 1.15 1.247.72 1.935 1.488 2.064 2.305.136.82-.298 1.52-1.3 2.1l-1.9-1.1c.515-.297.74-.68.67-1.15-.06-.465-.424-.9-1.088-1.272-.684-.395-1.37-.618-2.053-.67s-1.268.063-1.75.34c-.454.262-.617.563-.488.904s.556.84 1.28 1.5c.732.665 1.244 1.25 1.535 1.754s.37.956.234 1.354c-.122.4-.478.77-1.067 1.1-.983.567-2.166.796-3.548.686-1.376-.113-2.7-.532-3.945-1.255-.88-.508-1.504-1.048-1.87-1.62s-.464-1.128-.295-1.67c.183-.544.6-1.003 1.25-1.38l1.88 1.085c-.596.384-.847.818-.752 1.302.108.485.55.95 1.32 1.396.712.4 1.424.657 2.135.74.725.082 1.33-.015 1.8-.293zm3.674 5.48l-1.88-1.085 11-6.346 1.88 1.085-11 6.346zm11.884-9.202c.305-.176.654-.272 1.047-.288a2.15 2.15 0 0 1 1.15.3c.367.212.54.432.518.663s-.183.434-.488.6a2.26 2.26 0 0 1-1.047.276c-.393.008-.772-.094-1.138-.305s-.543-.43-.53-.657c.02-.223.183-.422.488-.598zm-2.486 11.685l11.173-3.302 1.92 1.1-14.944 4.07-1.433-.827 7.014-8.645 1.922 1.1-5.653 6.486zm9.052 1.704c1.077-.622 2.257-1.06 3.537-1.314 1.288-.25 2.542-.293 3.762-.13 1.226.168 2.324.532 3.293 1.1 1.498.864 2.2 1.86 2.074 3-.108 1.134-1.023 2.198-2.744 3.2l-.133.076c-1.07.618-2.24 1.054-3.507 1.308-1.254.254-2.5.297-3.74.13-1.233-.164-2.345-.532-3.334-1.103-1.5-.86-2.182-1.857-2.074-3 .115-1.13 1.027-2.187 2.735-3.173l.132-.076zm1.667 1.22c-1.22.704-1.918 1.43-2.094 2.182-.17.754.22 1.405 1.17 1.953s2.087.774 3.395.668c1.315-.1 2.647-.553 3.995-1.33 1.207-.696 1.895-1.425 2.064-2.188.183-.762-.2-1.417-1.15-1.964-.928-.536-2.046-.755-3.354-.657s-2.65.543-4.026 1.337zm-183.175-61.284l10.52-3.63 1.88 1.085-14.202 4.5-1.525-.88 5.663-6.352-10.94 3.308-1.525-.88 7.808-8.187 1.87 1.08-6.07 6 10.796-3.273 1.515.874-5.794 6.358zm7.893 7.78c-1.5-.86-2.216-1.84-2.175-2.944.047-1.106.9-2.133 2.53-3.08l.345-.2c1.092-.63 2.27-1.072 3.538-1.326a11.75 11.75 0 0 1 3.761-.152c1.24.152 2.298.48 3.172.985 1.43.825 2.07 1.738 1.92 2.74s-1.1 2.008-2.856 3.02l-.783.452-7.45-4.3c-1.058.64-1.62 1.33-1.688 2.064-.054.735.386 1.373 1.322 1.912a5.9 5.9 0 0 0 2.094.739 10.24 10.24 0 0 0 2.287.076l.254 1.18c-2.338.286-4.43-.103-6.272-1.167zm9.627-5.824c-.76-.438-1.674-.645-2.745-.62-1.064.02-2.155.28-3.273.786l5.5 3.178.142-.082c.9-.582 1.382-1.157 1.443-1.724.068-.57-.3-1.083-1.077-1.537zm11.948 11.833c-1.68.97-3.42 1.527-5.215 1.67-1.8.14-3.334-.164-4.635-.915-1.4-.8-1.972-1.704-1.75-2.7l-1.362.68-1.728-.997 15.615-9 1.88 1.085-5.825 3.36c1.7-.105 3.22.227 4.555.997s1.877 1.666 1.626 2.686c-.244 1.025-1.244 2.043-3 3.056l-.163.094zm-1.667-1.208c1.28-.74 2.023-1.453 2.227-2.14s-.16-1.3-1.088-1.836c-1.24-.715-2.708-.897-4.402-.545l-4.757 2.744c-.576.997-.255 1.848.965 2.552.902.52 1.952.723 3.152.6s2.5-.575 3.903-1.384zm8.61 11.654c-1.5-.86-2.216-1.842-2.175-2.944.047-1.107.9-2.133 2.53-3.08l.346-.2c1.1-.63 2.27-1.07 3.537-1.325 1.28-.254 2.535-.305 3.762-.153 1.24.153 2.297.48 3.17.986 1.43.825 2.07 1.738 1.922 2.738s-1.102 2.008-2.857 3.02l-.783.45-7.45-4.3c-1.057.642-1.62 1.33-1.688 2.065-.054.735.387 1.372 1.322 1.912a5.92 5.92 0 0 0 2.094.739 10.3 10.3 0 0 0 2.287.076l.254 1.18c-2.338.285-4.428-.104-6.272-1.167zm9.627-5.824c-.76-.438-1.674-.645-2.745-.622-1.064.02-2.155.282-3.273.786l5.5 3.18.142-.082c.902-.583 1.383-1.157 1.444-1.724.068-.57-.292-1.083-1.078-1.537zm15.4 7.336l-1.17.733c1.755-.082 3.317.272 4.686 1.06 1.54.888 1.996 1.832 1.373 2.833a10.15 10.15 0 0 1 2.704.082 7.63 7.63 0 0 1 2.572.921c2.412 1.392 2.36 2.837-.153 4.334l-7.37 4.252-1.88-1.085 7.26-4.187c.786-.454 1.192-.896 1.22-1.326.034-.434-.372-.895-1.22-1.384-.698-.403-1.488-.616-2.37-.64-.874-.027-1.7.14-2.48.504l-7.3 4.2-1.9-1.1 7.207-4.158c1.6-.923 1.617-1.836.05-2.74-1.233-.7-2.602-.895-4.107-.55l-8.03 4.633-1.88-1.085 11-6.346 1.78 1.027zm10.8 12.46c1.077-.622 2.256-1.06 3.537-1.314 1.288-.25 2.542-.293 3.762-.13 1.226.168 2.324.532 3.293 1.1 1.498.864 2.2 1.86 2.074 3-.108 1.134-1.023 2.197-2.745 3.2l-.132.077c-1.07.617-2.24 1.053-3.507 1.307-1.254.255-2.5.298-3.74.13-1.233-.164-2.345-.53-3.334-1.102-1.5-.86-2.182-1.857-2.074-3 .115-1.13 1.027-2.188 2.735-3.173l.132-.076zm1.667 1.22c-1.22.703-1.918 1.43-2.094 2.18-.17.755.22 1.406 1.17 1.953.955.552 2.087.774 3.395.67 1.315-.1 2.647-.553 3.995-1.33 1.207-.696 1.894-1.426 2.064-2.188.183-.762-.2-1.417-1.15-1.965-.928-.535-2.047-.754-3.355-.657s-2.65.544-4.025 1.338zm20 11.538c-1.68.97-3.42 1.526-5.215 1.67-1.8.14-3.335-.164-4.636-.915-1.4-.8-1.972-1.705-1.748-2.7l-1.363.68-1.728-.997 15.615-9 1.88 1.085-5.825 3.36c1.702-.106 3.22.227 4.555.997s1.877 1.666 1.626 2.686c-.244 1.025-1.243 2.043-3 3.056l-.162.094zm-1.667-1.2c1.28-.74 2.022-1.452 2.226-2.14s-.16-1.3-1.088-1.836c-1.24-.715-2.707-.897-4.402-.545l-4.757 2.744c-.576.997-.254 1.848.966 2.552.9.52 1.95.723 3.15.6s2.5-.575 3.904-1.385zm.92 6.984l-1.88-1.085 11-6.345 1.88 1.085-11 6.345zm11.884-9.202c.305-.175.654-.27 1.047-.287.4-.012.783.088 1.15.3s.54.432.518.663-.183.434-.488.6a2.26 2.26 0 0 1-1.047.276c-.393.008-.772-.094-1.138-.305s-.543-.43-.53-.657c.02-.223.183-.423.488-.6zm-6.613 12.243l-1.88-1.085 15.615-9.008 1.88 1.085-15.615 9.008zm7.59 4.613c-1.5-.86-2.217-1.842-2.176-2.944.047-1.107.9-2.133 2.53-3.08l.346-.2a11.59 11.59 0 0 1 3.538-1.325c1.28-.254 2.534-.305 3.76-.153 1.24.153 2.297.48 3.172.986 1.43.825 2.07 1.738 1.92 2.74s-1.1 2.007-2.857 3.02l-.782.452-7.452-4.3c-1.057.64-1.62 1.33-1.687 2.064-.055.735.386 1.372 1.32 1.912a5.92 5.92 0 0 0 2.094.739 10.31 10.31 0 0 0 2.288.076l.254 1.18c-2.338.285-4.43-.104-6.272-1.167zm9.626-5.824c-.76-.438-1.674-.645-2.744-.622-1.064.02-2.155.282-3.274.786l5.5 3.18.142-.082c.902-.583 1.383-1.157 1.444-1.724.068-.57-.3-1.083-1.078-1.537z" fill="#a8a8b3"/><rect width="358.852" height="6.942" rx="3.471" transform="matrix(.866183 .499727 -.866183 .499727 6.01303 264.543)" fill="#04d361"/><defs><filter id="A" x="4.853" y="82.465" width="628.496" height="371.139" filterUnits="userSpaceOnUse" color-interpolation-filters="sRGB"><feFlood flood-opacity="0" result="A"/><feColorMatrix in="SourceAlpha" values="0 0 0 0 0 0 0 0 0 0 0 0 0 0 0 0 0 0 127 0"/><feOffset dy="8"/><feColorMatrix values="0 0 0 0 0.160784 0 0 0 0 0.160784 0 0 0 0 0.180392 0 0 0 1 0"/><feBlend in2="A"/><feBlend in="SourceGraphic"/></filter><clipPath id="B"><path fill="#fff" transform="matrix(.866183 .499727 -.866183 .499727 354.309 156.652)" d="M0 0h173.82v155.596H0z"/></clipPath></defs></svg>