<svg xmlns="http://www.w3.org/2000/svg" width="119" height="16" fill="none" xmlns:v="https://vecta.io/nano"><g fill="#e1e1e6"><path d="M0 13.866l2.118 2.117L15.95 2.158 13.832.04 0 13.866z"/><path d="M2.128.04L.01 2.155 13.842 15.98l2.118-2.117L2.128.04z"/></g><g fill="#7159c1"><path d="M51.134 13.825l2.118 2.117L67.086 2.117 64.968 0 51.134 13.825z"/><path d="M53.234.06l-2.118 2.117L64.948 16l2.118-2.117L53.234.06z"/></g><g fill="#04d361"><path d="M102.257 13.877l2.118 2.117 13.83-13.825L116.09.052l-13.832 13.825z"/><path d="M104.36.056l-2.118 2.117 13.83 13.825 2.118-2.117L104.36.056z"/></g></svg>