<svg xmlns="http://www.w3.org/2000/svg" xmlns:xlink="http://www.w3.org/1999/xlink" width="480" height="574" fill="none" xmlns:v="https://vecta.io/nano"><path opacity=".5" fill-rule="evenodd" d="M250.828 1.94c52.963-10.933 107.188 26.085 144.618 67.44 34.294 37.89 34.03 94.786 47.915 145.278 13.346 48.537 49.848 97.398 31.66 144.12-18.172 46.68-82.545 44.41-118.09 77.904-42.003 39.577-51.562 119.374-106.102 133.343-54.426 13.94-117.498-19.793-151.065-67.475-31.82-45.2 4.64-111.285-12.43-164.764C69.84 282.98-12.503 250.95 1.62 195.057c13.872-54.9 97.13-39.885 140.3-73.347C185.187 88.19 198.3 12.783 250.828 1.94z" fill="#202024"/><g fill="#737380"><path d="M383.35 81.525c0-2.985 1.57-4.768 3.75-4.768s3.757 1.783 3.757 4.768-1.588 4.768-3.757 4.768c-2.178 0-3.75-1.783-3.75-4.768zm6.517 0c0-2.504-1.13-3.9-2.768-3.9s-2.768 1.377-2.768 3.9c0 2.504 1.13 3.9 2.768 3.9s2.768-1.385 2.768-3.9zm2.368 0c0-2.985 1.57-4.768 3.748-4.768s3.757 1.783 3.757 4.768-1.587 4.768-3.757 4.768c-2.177 0-3.748-1.783-3.748-4.768zm6.516 0c0-2.504-1.13-3.9-2.768-3.9s-2.767 1.377-2.767 3.9c0 2.504 1.13 3.9 2.767 3.9s2.768-1.385 2.768-3.9zm4.954-4.693v9.387h-.964v-8.524h-2.22v-.854h3.183v-.008zm2.235 4.693c0-2.985 1.57-4.768 3.75-4.768s3.756 1.783 3.756 4.768-1.587 4.768-3.756 4.768c-2.178 0-3.75-1.783-3.75-4.768zm6.516 0c0-2.504-1.13-3.9-2.767-3.9s-2.768 1.377-2.768 3.9c0 2.504 1.13 3.9 2.768 3.9s2.767-1.385 2.767-3.9zm4.954-4.693v9.387h-.964v-8.524h-2.22v-.854h3.183v-.008zm-43.312 18.002c0-2.985 1.57-4.768 3.75-4.768s3.757 1.783 3.757 4.768-1.588 4.768-3.757 4.768c-2.178 0-3.75-1.783-3.75-4.768zm6.517 0c0-2.504-1.13-3.9-2.768-3.9s-2.768 1.376-2.768 3.9c0 2.504 1.13 3.9 2.768 3.9 1.637-.008 2.768-1.385 2.768-3.9zm2.37 0c0-2.985 1.57-4.768 3.748-4.768s3.757 1.783 3.757 4.768-1.587 4.768-3.757 4.768c-2.177 0-3.748-1.783-3.748-4.768zm6.516 0c0-2.504-1.13-3.9-2.768-3.9s-2.768 1.376-2.768 3.9c0 2.504 1.13 3.9 2.768 3.9s2.768-1.385 2.768-3.9zm4.954-4.694v9.38h-.964v-8.524h-2.22v-.854h3.184zm2.246 4.694c0-2.985 1.57-4.768 3.748-4.768s3.757 1.783 3.757 4.768-1.587 4.768-3.757 4.768c-2.177 0-3.748-1.783-3.748-4.768zm6.516 0c0-2.504-1.13-3.9-2.768-3.9s-2.768 1.376-2.768 3.9c0 2.504 1.13 3.9 2.768 3.9 1.638-.008 2.768-1.385 2.768-3.9zm4.944-4.694v9.38h-.964v-8.524h-2.22v-.854h3.183zm4.846 0v9.38h-.964v-8.524h-2.22v-.854h3.183zm2.236 4.694c0-2.985 1.57-4.768 3.748-4.768s3.757 1.783 3.757 4.768-1.587 4.768-3.757 4.768c-2.177 0-3.748-1.783-3.748-4.768zm6.516 0c0-2.504-1.13-3.9-2.768-3.9s-2.767 1.376-2.767 3.9c0 2.504 1.13 3.9 2.767 3.9 1.638-.008 2.768-1.385 2.768-3.9zm4.954-4.694v9.38h-.964v-8.524h-2.22v-.854h3.183zm-43.362 17.555c0-2.985 1.57-4.768 3.75-4.768s3.757 1.783 3.757 4.768-1.588 4.768-3.757 4.768c-2.178.01-3.75-1.774-3.75-4.768zm6.517 0c0-2.504-1.13-3.9-2.768-3.9s-2.768 1.377-2.768 3.9c0 2.505 1.13 3.9 2.768 3.9s2.768-1.384 2.768-3.9zM394.82 103v9.38h-.964v-8.524h-2.22V103h3.184zm4.845 0v9.38h-.964v-8.524h-2.22V103h3.183zm4.845 0v9.38h-.964v-8.524h-2.22V103h3.183zm2.237 4.695c0-2.985 1.57-4.768 3.75-4.768s3.757 1.783 3.757 4.768-1.588 4.768-3.757 4.768c-2.17.01-3.75-1.774-3.75-4.768zm6.517 0c0-2.504-1.13-3.9-2.768-3.9s-2.768 1.377-2.768 3.9c0 2.505 1.13 3.9 2.768 3.9 1.646 0 2.768-1.384 2.768-3.9zm4.953-4.695v9.38h-.964v-8.524h-2.22V103h3.183z"/><use xlink:href="#B"/><path d="M35.672 254.538c0-4.72 2.484-7.538 5.926-7.538s5.94 2.82 5.94 7.538-2.5 7.538-5.94 7.538-5.926-2.82-5.926-7.538zm10.302 0c0-3.96-1.787-6.148-4.376-6.148s-4.376 2.176-4.376 6.148c0 3.96 1.787 6.148 4.376 6.148s4.376-2.2 4.376-6.148zm7.832-7.42v14.84H52.28v-13.476h-3.508v-1.35h5.033v-.013z"/><use xlink:href="#B" x="35.715"/><path d="M75.474 247.118v14.84H73.95v-13.476H70.44v-1.35h5.033v-.013z"/><use xlink:href="#C"/><path d="M21.047 275.578c0-4.72 2.483-7.538 5.926-7.538s5.94 2.82 5.94 7.538-2.5 7.538-5.94 7.538-5.926-2.818-5.926-7.538zm10.302 0c0-3.96-1.787-6.148-4.376-6.148s-4.376 2.176-4.376 6.148c0 3.96 1.787 6.148 4.376 6.148s4.376-2.2 4.376-6.148zm7.83-7.418v14.826h-1.524V269.5h-3.508v-1.35h5.033z"/><use xlink:href="#C" x="35.715"/><path d="M60.85 268.16v14.826h-1.524V269.5h-3.508v-1.35h5.033zm7.65 0v14.826h-1.524V269.5h-3.508v-1.35H68.5z"/><use xlink:href="#C" x="65.044"/><path d="M90.178 268.16v14.826h-1.524V269.5h-3.508v-1.35h5.033zM21.625 295.9c0-4.72 2.483-7.538 5.926-7.538s5.94 2.82 5.94 7.538-2.5 7.538-5.94 7.538c-3.443.013-5.926-2.806-5.926-7.538zm10.302 0c0-3.96-1.787-6.148-4.376-6.148s-4.376 2.176-4.376 6.148c0 3.96 1.787 6.148 4.376 6.148s4.376-2.2 4.376-6.148z"/><use xlink:href="#D"/><path d="M47.42 288.504v14.827h-1.524v-13.476h-3.51v-1.35h5.033z"/><use xlink:href="#D" x="15.32"/><path d="M58.615 295.91c0-4.72 2.483-7.538 5.926-7.538s5.94 2.82 5.94 7.538-2.5 7.538-5.94 7.538c-3.43.013-5.926-2.806-5.926-7.538zm10.302 0c0-3.96-1.787-6.148-4.376-6.148s-4.376 2.176-4.376 6.148c0 3.96 1.787 6.148 4.376 6.148 2.602 0 4.376-2.19 4.376-6.148z"/><use xlink:href="#D" x="36.99"/></g><g fill="#04d361"><path d="M325.712 445.034c-5.15-3.224-11.046-5.25-17.105-5.868-2.8-.3-5.845-.202-8.092 1.486-.48.352-.934.894-.833 1.473.076.428.442.743.795 1.008 6.97 5.3 17.484 5.957 25.235 1.9zm-.442-.49c-3.875-3-7.763-6.045-11.046-9.697s-5.945-7.972-6.93-12.783c-.303-1.46-.4-3.123.543-4.27 8.824 6.864 15.742 15.742 17.433 26.75zm.353.417c-.67-4.8-.896-9.748.202-14.47 1.1-4.723 3.687-9.244 7.726-11.94 1.528 3.55.87 7.63-.202 11.347-1.654 5.73-4.254 11.183-7.662 16.095m8.57 14.408c-5.24.63-9.8 3.388-13.7 6.927-3.914 3.54-6.7 8.3-7.84 13.437 5.138-.314 9.493-3.93 12.662-7.984s5.352-8.5 8.824-12.292m1.932 2.38c-4.216-10.365-2.688-22.87 3.9-31.926 2.992 10.592 1.894 22.556-3.9 31.926zm11.412 13.538a24.56 24.56 0 0 0-13.722 3.21 24.55 24.55 0 0 0-9.669 10.227c-.3.58-.543 1.3-.152 1.826.34.453.985.5 1.553.453 4.607-.302 8.697-3.06 12.068-6.2s6.312-6.788 10.036-9.508m-.48-.73a43.37 43.37 0 0 1-.429-24.268c.858-3.123 2.297-6.4 5.188-7.884.253-.126.53-.24.795-.138.24.088.392.34.505.58 1.035 2.154 1.326 4.584 1.225 6.964s-.606 4.723-1.098 7.053c-.9 4.307-1.402 8.942-3.762 12.657-.568.88-1.06 1.84-1.503 2.783-.454.945-.454 1.272-.858 2.028m30.12 4.7c-2.234-8.488.14-18.778 5.504-25.73.4-.516.92-1.057 1.565-1.007.985.088 1.237 1.398 1.2 2.393-.392 8.677-3.295 17.216-8.27 24.344zm2.725 1.84c10.34 2.683 22.193.076 30.8-6.246a24.93 24.93 0 0 0-16.663-2.041c-5.58 1.272-10.667 3.766-14.126 8.287zm2.3-5.632c5.795-9.42 16.9-15.566 27.95-16.12-1.275 4.483-4.974 7.972-9.14 10.075s-8.823 3.023-13.418 3.917c-1.793.34-4.242.73-5.4 2.128zm-4.444-27.428c1.565-5.353 3.143-10.768 3.572-16.322.43-5.566-.366-11.372-3.257-16.145-5.403 10.44-5.958 22.63-.48 33.033m18.37-9.748c6.325-11.46 19.226-20.63 32.28-21.914-5.037 12.52-18.772 22.2-32.28 21.914z"/><path d="M392.163 442.012c9.43 1.436 17.47 7.443 26.282 11.082 1.88.78 3.913 1.398 5.946 1.134 2.02-.265 4.014-1.625 4.468-3.602.38-1.65-.378-3.4-1.565-4.6s-2.752-1.965-4.317-2.607c-9.594-3.993-19.895-4.08-30.006-1.663m-6.274 6.864c2.133.605 2.865 1.713 4.557 3.15a49.12 49.12 0 0 0 19.932 10.213c.758.2 1.755.265 2.134-.428.328-.605-.1-1.322-.518-1.864-3.067-3.828-7.435-6.435-12.03-8.148s-8.584-3.766-14.075-3.325m-6.147-39.458c7.662 7.14 18.468 10.806 28.908 9.8.48-.05.997-.126 1.312-.466.733-.793-.15-2.015-.997-2.67-8.495-6.612-18.796-9.357-29.223-6.675zm7.295-2.656c10.137-7.58 24.035-9.874 36.078-5.944-4.544 4.47-10.843 6.876-17.193 7.53s-12.7-.05-18.885-1.587zm-2.903-18.324c-.833-8.463-.3-15.15-.884-23.65-.05-.68-.2-1.5-.833-1.738-.884-.34-1.628.743-1.92 1.65-2.524 7.834-1.148 16.826 3.623 23.55"/><path d="M384.336 388.715c5.756-3.552 10.06-8.186 14.05-13.627 2.777-3.8 5.112-8.325 4.48-12.984-3.9-.076-7.6 2.065-10.137 5.025s-4.04 6.65-5.163 10.377c-1.123 3.715-1.92 7.544-3.23 11.2zm13.8-3.83a113.41 113.41 0 0 0 34.59-20.35c-4.128-1.663-8.862-.668-13 .994-9.443 3.804-17.143 10.214-21.776 19.257m-9.75 8.55c6.388.692 12.876 1.146 19.2.088 6.223-1.033 12.106-3.5 17.925-5.945.48-.2 1-.44 1.212-.92.227-.516-.012-1.146-.442-1.536-.416-.378-.984-.567-1.527-.718-6.325-1.763-13.154-.945-19.377 1.158-6.198 2.104-11.298 4.597-16.992 7.872zm-36.455 15.703c-4.356-8.778-4.078-19.004-.316-28.046 2.65 4.03 2.967 9.155 2.487 13.94s-1.944 9.723-2.045 14.546m-17.52-9.192c-10.88-.2-21.75 4.42-29.135 12.38 5.428.856 11.02-.54 15.956-2.947s9.33-5.78 13.67-9.13m-12.194-4.206c-5.315-.43-10.44-1.084-15.552.478s-9.77 5.113-11.854 10.025c4.974.554 10.023-.68 14.58-2.746s8.698-4.924 12.826-7.757zm17.32.175c-4.785-3.124-9.708-6.3-15.275-7.607s-12.03-.34-15.918 3.854c4.506 2.644 9.985 2.96 15.2 2.947 5.226 0 11.64-.063 16.575 1.675"/><path d="M340.002 396.813c-8.18-8.023-11.286-22.418-8-33.374 6.438 9.747 9.316 21.775 8 33.374zm22.498-22.707c1.54-3.577 2.625-7.343 4.014-10.982s3.105-7.23 5.718-10.126 6.236-5.05 10.137-5.24c-2.436 11.033-9.783 20.88-19.667 26.397m-4.27 4.673c-2.55-3.5-5.503-8.26-8.962-10.88s-7.978-4.206-12.195-3.2c4.292 7.67 12.4 13.073 21.157 14.08zm.82-4.433c-1.68-4.244-3.358-8.526-4.04-13.047-.682-4.5-.265-9.332 2.045-13.26 4.494 8.475 5.933 17.568 2.222 26.396"/><path d="M362.547 348.087c2.55-8.4 10.25-14.584 18.57-17.418 1.047-.352 2.158-.655 3.257-.5s2.17.92 2.398 2.002c.303 1.424-.884 2.708-1.994 3.653-6.476 5.528-14.088 9.735-22.23 12.254zm.09-6.864c.328-5.415.656-10.906 2.424-16.032s5.163-9.937 10.1-12.2c.846 5.466-1.578 10.906-4.494 15.616s-6.438 9.144-8.18 14.395m.004 1.938c-2.108-6.12-2.323-13.9-5.997-19.23-2.562-3.728-6.677-6.272-8.887-10.214-1.464 3.7-1.022 7.934.518 11.6s4.077 6.814 6.8 9.7 5.05 5.063 7.575 8.136z"/></g><g fill="#3d3d4d"><path d="M362.547 525.182c-.164 0-.303-40.83-.315-91.18l.277-91.18c.165 0 .303 40.816.316 91.18l-.278 91.18z"/><path d="M398.3 402.883c.013.038-.543.24-1.54.58l-4.23 1.423a242.71 242.71 0 0 0-13.797 5.151c-5.277 2.254-10.238 4.093-13.078 6.536-1.414 1.21-2.222 2.52-2.626 3.464-.404.957-.48 1.55-.53 1.536-.026 0-.013-.15.012-.428.05-.277.114-.68.303-1.184.34-1.007 1.136-2.405 2.563-3.7 1.426-1.297 3.408-2.456 5.668-3.514 2.272-1.058 4.784-2.153 7.448-3.25 5.34-2.18 10.275-3.88 13.898-5 1.805-.566 3.282-.97 4.292-1.246 1.035-.3 1.604-.416 1.616-.378z"/><path d="M410.025 374.156c.012.013-.14.176-.43.454l-1.313 1.234-4.898 4.445-16.322 14.496c-6.375 5.655-11.88 11.057-15.692 15.125a207.79 207.79 0 0 0-4.443 4.887l-1.187 1.347c-.277.302-.43.466-.442.454s.1-.19.354-.53c.252-.328.606-.82 1.098-1.423.972-1.222 2.437-2.947 4.305-5.025 3.75-4.156 9.215-9.622 15.603-15.29l16.436-14.37 5.024-4.307 1.388-1.146c.34-.24.505-.365.518-.353z"/><path d="M380.195 400.54c-.164-.075 1.162-3.136 2.487-7.015l2.134-7.115c.15.012-.228 3.388-1.578 7.304a48.74 48.74 0 0 1-1.982 4.912c-.58 1.2-.985 1.94-1.06 1.914zm-17.6 24.7c-.037.025-.378-.378-.984-1.134l-2.512-3.2-8.307-10.592-11.033-13.652-.883-1.2c.025-.025.404.353 1.06 1.058l2.714 3.048a336.6 336.6 0 0 1 8.609 10.377c3.283 4.12 6.148 7.922 8.18 10.718l2.36 3.325c.543.793.833 1.246.795 1.272z"/><path d="M354.746 415.2c-.1.1-2.184-2.368-3.282-6.134-.808-2.657-.846-5.075-.745-6.183l.265.025c-.113.478-.202.718-.252.718-.05-.013-.05-.265-.013-.756l.265.025c.1 1.096.265 3.438 1.048 6.02 1.048 3.627 2.866 6.184 2.714 6.285zm-10.124-12.695c-.076.088-.745-.768-2.298-1.335-1.527-.592-3.837-.718-6.362-.504a38.98 38.98 0 0 0-6.413 1.033l-2.638.63c-.025-.076.9-.53 2.525-1.033 1.603-.504 3.9-1.033 6.476-1.222 2.562-.226 4.986-.025 6.564.706 1.616.717 2.196 1.7 2.146 1.725zm-2.398-3.085c-.05.1-1.338-.53-3.5-1.272a36.8 36.8 0 0 0-8.761-1.801 36.39 36.39 0 0 0-8.937.454l-3.66.73c-.012-.038.316-.176.934-.4.606-.227 1.515-.5 2.65-.743 2.272-.517 5.504-.894 9.064-.63 3.56.277 6.703 1.146 8.862 2.003l2.512 1.133c.555.3.858.48.846.516zm20.276-13.023c-.164.038-1.3-3.942-2.563-8.878l-1.994-9.03c.164-.038 1.3 3.93 2.562 8.878l1.995 9.03z"/><path d="M362.674 386.397c-.177.063-.9-2.594-2.84-5.314-1.88-2.77-4.267-4.17-4.18-4.307.025-.063.694.176 1.616.83.92.642 2.07 1.725 3.055 3.136 1.982 2.833 2.487 5.654 2.348 5.654zm-.127 117c-.063.013-.2-.982-.643-2.72s-1.313-4.194-2.74-7.065c-2.827-5.768-7.978-13.072-14.504-20.4-3.245-3.7-6.388-7.178-9.05-10.515-2.677-3.325-4.873-6.5-6.476-9.307s-2.65-5.214-3.27-6.914c-.303-.857-.517-1.512-.644-1.978-.126-.453-.2-.705-.164-.705.05-.012.354.932 1.023 2.594s1.767 4.03 3.408 6.776c1.64 2.758 3.85 5.88 6.54 9.18 2.676 3.3 5.82 6.763 9.077 10.465 6.55 7.343 11.7 14.735 14.44 20.604 1.4 2.922 2.196 5.428 2.575 7.2.2.882.316 1.574.366 2.053.063.5.1.73.063.73z"/><path d="M394.864 466.998c.025.038-.593.353-1.692.945a37.1 37.1 0 0 0-4.393 2.897c-1.767 1.347-3.736 3.123-5.77 5.25-2.02 2.13-4.115 4.6-6.236 7.267-4.254 5.327-8.243 10.037-10.616 13.803-1.212 1.864-2.096 3.438-2.664 4.546-.58 1.096-.883 1.726-.934 1.7-.013-.012.038-.176.152-.478.126-.302.302-.756.568-1.322.517-1.147 1.35-2.76 2.524-4.66 2.3-3.854 6.262-8.627 10.516-13.954 2.133-2.658 4.24-5.14 6.312-7.28 2.07-2.128 4.1-3.89 5.907-5.2 1.818-1.322 3.41-2.216 4.532-2.77.556-.277 1.023-.453 1.326-.58.3-.126.454-.176.467-.164z"/><path d="M395.495 478.81c.013.09-1.363.252-3.585.517-2.21.29-5.277.655-8.496 1.662-3.206 1.045-5.87 2.632-7.6 3.98-1.755 1.347-2.575 2.468-2.664 2.405-.025-.025.14-.327.53-.818.378-.504 1.01-1.172 1.868-1.902 1.704-1.474 4.393-3.15 7.688-4.22 3.294-1.045 6.4-1.348 8.634-1.524l3.623-.1z"/><path d="M374.212 486.078c-.2-.1 1.426-2.57 2.676-5.87 1.174-3.337 1.452-6.26 1.654-6.233.075.012.075.743-.063 1.914s-.417 2.796-1.048 4.508-1.452 3.15-2.07 4.144c-.632 1.007-1.086 1.587-1.15 1.536zm31.118-50.79c.013.025-.2.126-.568.302l-1.68.768-2.638 1.247-3.42 1.788-1.957 1.1-2.058 1.297c-1.44.87-2.878 1.94-4.418 3.035-3.017 2.28-6.186 4.974-9.228 8.098-3.017 3.148-5.617 6.397-7.8 9.483-1.048 1.574-2.07 3.048-2.9 4.5-.417.73-.858 1.4-1.224 2.103l-1.048 2c-.695 1.246-1.187 2.443-1.68 3.476-.492 1.02-.87 1.926-1.162 2.67l-.706 1.7c-.165.4-.266.592-.3.58s.038-.214.177-.617l.606-1.75a25.71 25.71 0 0 1 1.073-2.72c.454-1.045.934-2.254 1.603-3.526l1-2.015c.353-.693.795-1.398 1.2-2.13.808-1.486 1.83-2.984 2.866-4.57 2.17-3.124 4.784-6.4 7.826-9.584 3.068-3.136 6.274-5.856 9.33-8.123 1.566-1.096 3.017-2.154 4.482-3 .72-.44 1.4-.894 2.095-1.272l1.982-1.083c1.25-.718 2.45-1.234 3.484-1.726 1.023-.503 1.944-.87 2.7-1.158l1.73-.668c.404-.15.606-.226.62-.2z"/><path d="M379.753 452.377c-.05-.013.228-.995 1.402-2.1 1.148-1.083 3.23-2.1 5.668-2.166 2.423-.063 4.53.617 5.958 1.16 1.44.566 2.285 1.02 2.26 1.095-.038.088-.935-.24-2.386-.692-1.452-.44-3.5-1.033-5.807-.97-2.285.076-4.267.944-5.416 1.9-1.174.945-1.6 1.84-1.68 1.776zm-3.823 3.943c-.164-.1 1.275-2.204 1.603-5.227.38-3.022-.543-5.403-.366-5.453.063-.025.4.53.67 1.524.277.982.467 2.43.277 4.005s-.694 2.934-1.2 3.828c-.48.894-.92 1.36-.984 1.323z"/></g><g fill="#8257e6"><path d="M334.283 509.263c.884 15.604 5.593 31.473 12.84 47.517h31.52c6.917-15.88 11.298-31.724 12.08-47.517h-56.44zm-53.11-376.893c0-5.874 3.1-9.37 7.347-9.37s7.372 3.495 7.372 9.37-3.114 9.37-7.372 9.37-7.347-3.495-7.347-9.37zm12.773 0c0-4.927-2.214-7.62-5.426-7.62s-5.425 2.718-5.425 7.62S285.3 140 288.52 140c3.212.025 5.426-2.694 5.426-7.62zm4.67 0c0-5.874 3.1-9.37 7.347-9.37s7.372 3.495 7.372 9.37-3.114 9.37-7.372 9.37-7.347-3.495-7.347-9.37zm12.797 0c0-4.927-2.214-7.62-5.425-7.62s-5.426 2.718-5.426 7.62S302.778 140 306 140c3.2.025 5.425-2.694 5.425-7.62zm9.707-9.2v18.4h-1.897v-16.724h-4.355v-1.675h6.252zm4.404 9.2c0-5.874 3.1-9.37 7.347-9.37s7.372 3.495 7.372 9.37-3.114 9.37-7.372 9.37-7.347-3.495-7.347-9.37zm12.797 0c0-4.927-2.214-7.62-5.426-7.62s-5.425 2.718-5.425 7.62 2.214 7.62 5.425 7.62c3.212.025 5.426-2.694 5.426-7.62zm9.73-9.2v18.4h-1.897v-16.724h-4.355v-1.675h6.252zM263 158.5c0-5.874 3.1-9.37 7.347-9.37s7.372 3.495 7.372 9.37-3.114 9.37-7.372 9.37-7.347-3.5-7.347-9.37zm12.773 0c0-4.927-2.214-7.622-5.426-7.622s-5.425 2.72-5.425 7.622c0 4.927 2.214 7.62 5.425 7.62s5.426-2.718 5.426-7.62zm4.67 0c0-5.874 3.1-9.37 7.347-9.37s7.372 3.495 7.372 9.37-3.114 9.37-7.372 9.37-7.347-3.52-7.347-9.37zm12.797 0c0-4.927-2.214-7.622-5.426-7.622s-5.425 2.72-5.425 7.622c0 4.927 2.214 7.62 5.425 7.62s5.426-2.718 5.426-7.62z"/><use xlink:href="#E"/><path d="M307.376 158.5c0-5.874 3.1-9.37 7.348-9.37s7.37 3.495 7.37 9.37-3.114 9.37-7.37 9.37-7.348-3.52-7.348-9.37zm12.773 0c0-4.927-2.214-7.622-5.425-7.622s-5.426 2.72-5.426 7.622c0 4.927 2.214 7.62 5.426 7.62s5.425-2.718 5.425-7.62z"/><use xlink:href="#E" x="26.907"/><use xlink:href="#F"/><path d="M343.797 158.5c0-5.874 3.1-9.37 7.347-9.37s7.372 3.495 7.372 9.37-3.114 9.37-7.372 9.37-7.347-3.52-7.347-9.37zm12.773 0c0-4.927-2.214-7.622-5.426-7.622s-5.425 2.72-5.425 7.622c0 4.927 2.214 7.62 5.425 7.62s5.426-2.718 5.426-7.62z"/><use xlink:href="#F" x="26.907"/><path d="M281.174 183.777c0-5.874 3.09-9.37 7.347-9.37s7.372 3.495 7.372 9.37-3.114 9.37-7.372 9.37-7.347-3.52-7.347-9.37zm12.773 0c0-4.927-2.214-7.62-5.426-7.62s-5.425 2.718-5.425 7.62 2.214 7.62 5.425 7.62 5.426-2.718 5.426-7.62z"/><use xlink:href="#F" x="-35.715" y="25.268"/><use xlink:href="#E" x="10.217" y="25.268"/><use xlink:href="#F" x="-16.69" y="25.268"/><path d="M327.132 183.777c0-5.874 3.09-9.37 7.347-9.37s7.372 3.495 7.372 9.37-3.114 9.37-7.372 9.37-7.347-3.52-7.347-9.37zm12.772 0c0-4.927-2.214-7.62-5.425-7.62s-5.425 2.718-5.425 7.62 2.213 7.62 5.425 7.62 5.425-2.718 5.425-7.62z"/><use xlink:href="#E" x="46.663" y="25.268"/></g><path d="M272.544 12.755l-1.934-.13.003-.064 1.93.195zm0 0l.613.044.072.004.724.055 1.697.274 1.966.31 1.606.426.59.157.024.006c1.145.246 2.323.7 3.63 1.2l1.4.527.804.388 1.954.95c.458.232.908.503 1.377.795l.298.186 1.152.702a38.47 38.47 0 0 1 10.936 10.732c3.135 4.758 5.52 10.717 6.184 17.4.014.57.045 1.12.077 1.666.066 1.152.13 2.27.017 3.433h0l-.001.01a33.22 33.22 0 0 0-.059 1.067c-.024.523-.046 1.026-.11 1.552l-.05.338-.354 2.3c-.717 3.512-1.743 7.073-3.535 10.378l-.003.006c-1.753 3.343-3.997 6.538-6.77 9.344-2.8 2.78-6.08 5.2-9.732 7.06-.356.163-.69.328-1.018.5-.59.292-1.157.57-1.777.802l-2.95 1.08c-.576.162-1.135.302-1.702.444l-1.373.352c-.476.14-.973.225-1.496.3l-.412.057c-.388.053-.792.107-1.186.18-.188.028-.362.057-.53.085-.353.06-.673.115-1.017.13l-1.615.08-.564.028c-.902.047-1.77.092-2.647.05h-.006c-2.158-.078-4.323-.31-6.445-.763l-.004-.001c-3.668-.75-7.196-2.07-10.413-3.817l-.173-.087a.5.5 0 0 0-.446 0l-.15.075-11.46 5.456 2.405-12.814a.5.5 0 0 0-.12-.415l-.105-.118h-.001c-4.216-4.698-7.095-10.262-8.507-15.9l-.001-.003c-1.45-5.636-1.427-11.33-.453-16.483a36.99 36.99 0 0 1 5.561-13.593l.001-.001c2.554-3.84 5.602-6.87 8.666-9.214l.012-.01c1.202-.98 2.476-1.754 3.72-2.5l.844-.515c.504-.286 1.003-.525 1.5-.768l.73-.356c.743-.37 1.418-.706 2.11-.928a.28.28 0 0 0 .023-.008l.608-.23c1.208-.458 2.3-.872 3.356-1.1a.33.33 0 0 0 .02-.005l.69-.182c.997-.265 1.877-.5 2.708-.59l1.222-.196c.568-.095 1.082-.18 1.566-.235l2.053-.13h.002l.546-.04.732-.054.33-.032.074-.01 2.58.187zm-3.87 77.058c.946.045 1.893-.004 2.812-.052l.544-.027 1.642-.08c.306-.014.6-.058.876-.103l.206-.034c.203-.034.392-.066.584-.09.01-.001.02-.003.03-.004.368-.067.733-.116 1.11-.167l.495-.068c.544-.078 1.106-.173 1.66-.34l.952-.247 2.186-.58a.4.4 0 0 0 .037-.012l.003-.001 3.027-1.103c.696-.265 1.377-.6 2.032-.92l.89-.43a40.97 40.97 0 0 0 10.168-7.387l.003-.003c2.904-2.937 5.218-6.28 7.037-9.752 1.885-3.482 2.948-7.22 3.663-10.835.002-.008.003-.017.004-.025l.4-2.72c.063-.607.1-1.232.117-1.838l.042-.862c.12-1.273.04-2.56-.037-3.78l-.08-1.53c0-.012-.001-.023-.002-.035-.706-6.97-3.22-13.17-6.508-18.095l-.003-.005a40.02 40.02 0 0 0-11.431-11.072c-.006-.004-.012-.008-.02-.012-.325-.188-.657-.392-.99-.597-.64-.394-1.295-.795-1.945-1.11h0l-.005-.002-2.8-1.336c-.015-.007-.03-.014-.046-.02L284 14.052c-1.348-.505-2.65-.992-3.906-1.248l-.868-.22-1.372-.343c-.015-.004-.03-.006-.044-.01l-3.73-.537c-.012-.002-.025-.003-.037-.004-.28-.02-.54-.03-.782-.04l-.107-.004-.578-.024-1.96-.066c-.23-.007-.405-.007-.524-.005l-.113.002a1.73 1.73 0 0 0-.129-.01l-.108-.005-.193-.008a.47.47 0 0 0-.046 0l-1.252.04h0-.01l-2.07.078a.45.45 0 0 0-.032.002c-.546.053-1.152.14-1.8.236l-1.022.146c-.928.09-1.912.34-2.928.597l-.632.16c-1.13.23-2.28.65-3.47 1.082l-.67.243c-.77.248-1.52.603-2.266.968l-.76.362c-.512.24-1.05.494-1.57.774-.007.004-.014.008-.02.012l-.794.477c-1.278.764-2.65 1.585-3.957 2.622-3.19 2.4-6.37 5.533-9.043 9.502-2.677 3.96-4.807 8.754-5.86 14.132v.001c-1.037 5.36-1.078 11.28.427 17.18 1.434 5.762 4.322 11.457 8.564 16.303L239 83.547l-1.402 7.406a.5.5 0 0 0 .711.54l.587-.286 12.56-5.967c3.258 1.716 6.797 3.022 10.498 3.777 2.227.48 4.476.717 6.718.797zm0 0l.02-.5m-.02.5l.02-.5m.04-.67c.906.044 1.802-.003 2.705-.05l.554-.028 1.616-.08c.373-.018.74-.08 1.1-.143l.493-.08c.384-.072.772-.125 1.16-.177.672-.09 1.344-.182 1.994-.373l1.337-.343 1.75-.456 1.158-.423 1.81-.665c.642-.24 1.25-.54 1.858-.84l.98-.472a39.47 39.47 0 0 0 9.868-7.158c2.812-2.845 5.085-6.083 6.86-9.465 1.827-3.37 2.865-6.987 3.587-10.527l.356-2.317.052-.344c.064-.54.09-1.085.114-1.628l.057-1.02c.116-1.2.05-2.385-.018-3.557l-.074-1.62c-.28-2.82-.86-5.515-1.675-8.047a39.13 39.13 0 0 0-4.634-9.571l-33.02 59.384zm0 0c-2.182-.08-4.376-.315-6.53-.773l6.53.773zm11.325-75.6c1.225.264 2.505.757 3.83 1.267l1.335.506a.87.87 0 0 1 .048.02l.82.396 1.973.958c.5.253.983.545 1.456.84l.31.193 1.116.68c.013.007.017.01.022.013 3.918 2.54 7.948 6.148 11.234 11.016l.01.014c1.88 2.852 3.497 6.124 4.652 9.72.835 2.565 1.434 5.297 1.724 8.16.016.528.05 1.06.084 1.594.076 1.205.153 2.428.034 3.663l-.044.9c-.026.597-.052 1.195-.113 1.788l-.408 2.7c-.71 3.592-1.76 7.276-3.613 10.697-1.8 3.435-4.087 6.738-6.95 9.635a40.46 40.46 0 0 1-10.026 7.289c-.312.145-.62.296-.93.448-.643.316-1.288.632-1.962.89l-3.023 1.1-2.172.575-.968.25c-.672.204-1.37.297-2.073.392-.383.05-.766.103-1.146.172-.205.025-.4.06-.615.094-.335.056-.672.113-1.015.13l-1.642.08-.552.028c-.92.047-1.84.095-2.76.05m11.365-76.258l-18 75.472c2.194.472 4.415.708 6.635.787m11.365-76.258h0zm21.69 16.196l-11.115-10.775c3.857 2.47 7.84 5.998 11.115 10.775zm-11.133-10.786l-2.85-1.663c.606.295 1.176.646 1.78 1.02l1.07.645zm-2.86-1.667l-2.56-1.217 2.56 1.217zm-2.788-1.326l.002.001-.002-.001z" fill="#3c3c42" stroke="#3c3c42" stroke-linejoin="round"/><g stroke="#8257e6"><path d="M49.5 97.5h116v68h-116z"/><path d="M138.257 125.5h-15.5v-11h32v24h-16v-13h-.5z"/><path d="M106.757 125.5h32v24h-32z"/></g><path d="M77.257 114H61v2.543h16.257V114z" fill="#8257e6"/><path d="M61.257 134h33v1h-33zm0-5h33v1h-33zm0 10h33v1h-33zm0 5h33v1h-33zm.126 5.042h16.033v1.002H61.383z" fill="#737380"/><g fill="#8257e6"><use xlink:href="#G"/><use xlink:href="#H"/><use xlink:href="#G" x="-8.528"/><use xlink:href="#H" x="-8.528"/><path d="M405.66 282.098c0-.157.473-.275 1.064-.275s1.065.118 1.065.275-.473.275-1.065.275-1.064-.13-1.064-.275z"/><use xlink:href="#H" x="-17.055"/><use xlink:href="#I"/><use xlink:href="#H" x="-25.585"/><use xlink:href="#I" x="-8.518"/><use xlink:href="#H" x="-34.112"/><use xlink:href="#I" x="-17.056"/><path d="M375.804 282.098c0-.157.474-.275 1.065-.275s1.064.118 1.064.275-.473.275-1.064.275-1.065-.13-1.065-.275z"/><use xlink:href="#I" x="-25.584"/><use xlink:href="#G" x="-55.439"/><use xlink:href="#I" x="-34.112"/><use xlink:href="#H" x="-59.695"/><use xlink:href="#I" x="-42.64"/><use xlink:href="#G" x="-72.495"/><use xlink:href="#J"/><use xlink:href="#G" x="-81.023"/><use xlink:href="#J" x="-8.528"/><use xlink:href="#G" x="-89.551"/><use xlink:href="#H" x="-89.551"/><use xlink:href="#G" x="-98.079"/><use xlink:href="#H" x="-98.079"/><use xlink:href="#G" x="-106.607"/><path d="M311.838 282.098c0-.157.473-.275 1.064-.275s1.065.118 1.065.275-.474.275-1.065.275-1.064-.13-1.064-.275z"/><use xlink:href="#G" x="-115.135"/><path d="M305.254 280.158c.158 0 .276.472.276 1.062 0 .367-.052.68-.118.878l-.158-.157c.12.04.184.105.184.157s-.065.118-.184.157l-.092.027-.065-.184c-.08-.197-.118-.51-.118-.878 0-.6.118-1.062.275-1.062z"/><use xlink:href="#K"/><use xlink:href="#L"/><use xlink:href="#K" y="-8.507"/><use xlink:href="#L" y="-8.508"/><use xlink:href="#K" y="-17.015"/><use xlink:href="#L" y="-17.016"/><path d="M305.254 250.374c.158 0 .276.47.276 1.06s-.118 1.062-.276 1.062-.275-.472-.275-1.062.118-1.06.275-1.06z"/><use xlink:href="#L" y="-25.524"/><use xlink:href="#K" y="-34.03"/><path d="M305.254 239.742c.153 0 .276-.476.276-1.062s-.123-1.062-.276-1.062-.275.476-.275 1.062.123 1.062.275 1.062zm.934-5.454c0 .145-.408.263-.933.276l.276-.276v.13c0 .6-.118 1.062-.276 1.062s-.276-.472-.276-1.062V234l.276.013c.525.013.933.13.933.275z"/><use xlink:href="#M"/><path d="M314.716 234.288c0 .158-.474.276-1.065.276s-1.064-.118-1.064-.276.473-.275 1.064-.275c.578-.013 1.065.118 1.065.275zm4.257 0c0 .158-.473.276-1.064.276s-1.065-.118-1.065-.276.473-.275 1.065-.275 1.064.118 1.064.275z"/><use xlink:href="#N"/><use xlink:href="#M" x="17.055"/><use xlink:href="#O"/><use xlink:href="#M" x="25.585"/><use xlink:href="#N" x="17.056"/><use xlink:href="#M" x="34.112"/><path d="M348.828 234.288c0 .158-.473.276-1.065.276s-1.064-.118-1.064-.276.473-.275 1.064-.275c.58-.013 1.065.118 1.065.275z"/><use xlink:href="#M" x="42.64"/><use xlink:href="#N" x="34.112"/><use xlink:href="#P"/><use xlink:href="#Q"/><use xlink:href="#M" x="59.695"/><use xlink:href="#Q" x="8.527"/><use xlink:href="#M" x="68.225"/><use xlink:href="#P" x="21.327"/><use xlink:href="#M" x="76.752"/><use xlink:href="#P" x="29.855"/><use xlink:href="#R"/><use xlink:href="#P" x="38.383"/><use xlink:href="#R" x="8.528"/><use xlink:href="#P" x="46.911"/><path d="M412.794 234.288c0 .158-.473.276-1.064.276s-1.065-.118-1.065-.276.474-.275 1.065-.275c.578-.013 1.064.118 1.064.275z"/><use xlink:href="#P" x="55.439"/><use xlink:href="#O" x="89.552"/><path d="M424.844 235.023c-.118 0-.223-.315-.263-.735l.263.263c-.105.013-.2.013-.33.013-.59 0-1.064-.118-1.064-.276s.473-.275 1.064-.275l.33.013.29.027-.026.235c-.04.42-.145.735-.263.735z"/><use xlink:href="#S"/><use xlink:href="#T"/><use xlink:href="#S" y="8.508"/><use xlink:href="#S" y="12.77"/><use xlink:href="#S" y="17.016"/><path d="M424.844 260.546c-.158 0-.276-.472-.276-1.062s.118-1.06.276-1.06.276.472.276 1.06-.118 1.062-.276 1.062z"/><use xlink:href="#U"/><path d="M424.844 269.054c-.158 0-.276-.472-.276-1.06s.118-1.062.276-1.062.276.472.276 1.062-.118 1.06-.276 1.06z"/><use xlink:href="#U" y="8.508"/><use xlink:href="#T" y="34.032"/><use xlink:href="#U" y="17.016"/><path d="M344.78 273.682c0-.158.473-.276 1.065-.276l-.276.276v-.2c0-.052.013-.118.013-.197.013-.13.04-.236.066-.34.052-.197.118-.315.197-.315s.144.118.197.315c.026.1.04.2.066.34a1.15 1.15 0 0 1 .013.197v.2c-.12.118.276-.276-.276.275-.592 0-1.065-.118-1.065-.275zm-3.98 0c0-.158.447-.276 1-.276s.998.118.998.276-.447.275-.998.275-1-.118-1-.275zm-3.983 0c0-.158.447-.276 1-.276s1 .118 1 .276-.447.275-1 .275-1-.118-1-.275z"/><use xlink:href="#V"/><path d="M328.854 273.682c0-.158.447-.276 1-.276s1 .118 1 .276-.447.275-1 .275-1-.118-1-.275z"/><use xlink:href="#V" x="-7.963"/><path d="M320.892 273.682c0-.158.446-.276.998-.276s1 .118 1 .276-.447.275-1 .275-.998-.118-.998-.275z"/><use xlink:href="#V" x="-15.936"/><path d="M313.848 272.62c.158 0 .276.472.276 1.062l-.276-.276h.2c.053 0 .12.014.198.014.13.013.236.04.34.065.197.053.316.118.316.197s-.12.144-.316.196c-.092.027-.2.04-.34.066-.08.013-.145.013-.198.013h-.2c-.118-.118.276.275-.276-.275 0-.6.132-1.062.276-1.062z"/><use xlink:href="#W"/><use xlink:href="#X"/><use xlink:href="#W" y="-8.56"/><use xlink:href="#X" y="-8.56"/><use xlink:href="#W" y="-17.121"/><path d="M313.848 246.926c.158 0 .276.485.276 1.075s-.118 1.074-.276 1.074-.276-.485-.276-1.074.132-1.075.276-1.075zm1.064-3.2c0 .158-.473.276-1.065.276l.276-.276v.2c0 .052-.013.118-.013.197-.013.13-.04.236-.066.34-.052.197-.118.315-.197.315s-.144-.118-.197-.315c-.026-.1-.04-.2-.066-.34-.013-.08-.013-.145-.013-.197v-.2c.12-.118-.276.276.276-.275.592 0 1.065.118 1.065.275zm3.982.002c0 .157-.446.275-.998.275s-1-.118-1-.275.447-.275 1-.275.998.118.998.275zm3.982 0c0 .157-.447.275-1 .275s-1-.118-1-.275.447-.275 1-.275c.565 0 1 .118 1 .275zm3.98 0c0 .157-.447.275-1 .275s-.998-.118-.998-.275.447-.275.998-.275c.566 0 1 .118 1 .275zm3.995 0c0 .157-.447.275-1 .275s-1-.118-1-.275.447-.275 1-.275 1 .118 1 .275zm3.98 0c0 .157-.446.275-.998.275s-1-.118-1-.275.447-.275 1-.275.998.118.998.275zm3.982 0c0 .157-.447.275-1 .275s-1-.118-1-.275.447-.275 1-.275 1 .118 1 .275zm3.98 0c0 .157-.447.275-.998.275s-1-.118-1-.275.447-.275 1-.275.998.118.998.275zm3.05 1.063c-.158 0-.276-.472-.276-1.062l.276.275h-.2c-.053 0-.12-.013-.198-.013a2.15 2.15 0 0 1-.341-.066c-.197-.052-.316-.117-.316-.196s.12-.144.316-.197c.092-.026.2-.04.34-.065.08 0 .145-.013.198-.013h.2c.118.118-.276-.276.276.275 0 .6-.12 1.062-.276 1.062zm0 4.285c-.158 0-.276-.485-.276-1.074s.118-1.075.276-1.075.276.485.276 1.075-.118 1.074-.276 1.074z"/><use xlink:href="#Y"/><use xlink:href="#Z"/><use xlink:href="#Z" y="4.287"/><use xlink:href="#Y" y="12.846"/><use xlink:href="#Z" y="12.847"/><use xlink:href="#a"/><use xlink:href="#a" y="-29.955"/><use xlink:href="#a" x="32.007" y="-29.955"/><use xlink:href="#a" x="32.007" y="-0.762"/><use xlink:href="#a" x="15.253"/><use xlink:href="#a" x="16.015" y="-29.955"/><use xlink:href="#a" y="-14.212"/><use xlink:href="#a" x="31.245" y="-14.984"/></g><path fill-rule="evenodd" d="M410.206 250.467h-52.614v1.03h52.614v-1.03zm0 5.146h-52.614v1.03h52.614v-1.03zm-52.46 5.598h52.11v1.003h-52.11v-1.003zm31.065 5.01h-31.065v1.002H388.8v-1.002z" fill="#737380"/><g fill="#8257e6"><path d="M128.88 526.25l-7.674 28.33 24.953 2.28 5.256-26.98-22.535-3.63z"/><path d="M146.894 554.54c-.013.092-1.406.065-3.653-.118l-8.765-.957-8.725-1.167-3.6-.616c.013-.092 1.406-.053 3.653.13l8.764.97 8.726 1.167 3.6.6z"/><path opacity=".078" d="M121.205 554.578l24.953 2.28.407-2.084-24.638-3.12-.696 2.648"/><path d="M231.95 518.646l-1.67 25.17s25.11 8.312 25.256 12.992l-49.066.354.985-39.328 24.494.813z"/></g><path d="M231.083 543.593c-.013.236-1.222.314-2.417 1.048-1.222.708-1.866 1.718-2.077 1.613-.223-.053.184-1.468 1.656-2.334 1.46-.878 2.904-.55 2.838-.327zm5.087 2.28c.052.236-1 .603-1.84 1.6-.867.957-1.117 2.045-1.353 2.032-.224.026-.355-1.376.723-2.583 1.064-1.22 2.47-1.284 2.47-1.048zm2.732 6.226c-.223.04-.512-1.154.145-2.452.644-1.298 1.787-1.783 1.88-1.573.13.197-.618.878-1.143 1.953-.54 1.05-.644 2.06-.88 2.072zm-8.068-14.3c-.105.2-1.196-.144-2.55-.1-1.354.026-2.418.445-2.55.236-.13-.17.92-1.036 2.523-1.062 1.6-.066 2.694.734 2.576.917z" fill="#263238"/><path opacity=".008" d="M231.622 523.627l-.29 4.483-24.1-.943.092-4.05 24.296.51z" fill="#000"/><g fill="#263238"><path d="M231.07 532.725c0 .105-.946.223-2.457-.092a11.03 11.03 0 0 1-2.549-.865 13.68 13.68 0 0 1-1.393-.787c-.223-.157-.486-.3-.723-.603-.263-.262-.394-.89-.065-1.27.262-.367.71-.512 1.064-.512.368 0 .657.08.92.158.538.144 1.05.34 1.51.563.92.46 1.67 1 2.22 1.547 1.103 1.088 1.47 1.993 1.38 2.032-.105.08-.644-.694-1.774-1.586-.565-.446-1.287-.918-2.155-1.298-.433-.183-.906-.354-1.393-.472-.512-.157-.96-.17-1.103.053-.053.092-.053.118.04.275.105.144.315.288.54.433.42.3.854.55 1.274.773.84.446 1.656.76 2.353.983 1.406.446 2.325.538 2.312.67z"/><path d="M230.755 533.066c-.092.04-.54-.84-.578-2.386-.013-.773.092-1.69.42-2.674.17-.485.38-.984.67-1.47.302-.47.67-1.114 1.603-1.193.486 0 .88.38.998.708.158.34.17.617.224.905.08.577.04 1.14-.053 1.652-.184 1.035-.644 1.887-1.13 2.504-1 1.245-2 1.494-2.023 1.415-.08-.118.775-.563 1.537-1.756a5.59 5.59 0 0 0 .841-2.281c.066-.446.066-.93 0-1.416-.066-.524-.25-.944-.447-.905-.25-.013-.67.367-.88.774a8.58 8.58 0 0 0-.644 1.311c-.33.878-.5 1.717-.552 2.425-.092 1.442.144 2.347.013 2.386z"/></g><path d="M231.964 299.956l-74.768-.564L121.06 536.12l31.037 3.92 39.763-194.647 11.93 195.92 33.56-.577-5.387-240.78z" fill="#29292e"/><g fill="#6c6c80"><path d="M189.376 339.388c.184 0 .355.6.355 1.3.013.72-.13 1.3-.328 1.3-.184 0-.355-.577-.355-1.3 0-.72.144-1.3.328-1.3zm.001-5.243c.183 0 .34.6.328 1.3 0 .72-.158 1.3-.355 1.3-.184 0-.34-.6-.328-1.3s.17-1.3.355-1.3zm.118-5.245c.184 0 .328.603.315 1.324s-.184 1.3-.38 1.298c-.184 0-.328-.6-.302-1.324 0-.72.17-1.298.368-1.298zm.2-5.243c.184.013.315.603.3 1.324s-.2 1.298-.394 1.298c-.184-.013-.316-.603-.3-1.324s.197-1.298.394-1.298zm.302-5.23c.184.014.302.604.263 1.325-.053.72-.237 1.297-.42 1.284s-.302-.603-.262-1.324c.052-.72.236-1.298.42-1.285zm.42-5.23c.184.013.3.616.236 1.337-.065.72-.263 1.298-.447 1.272-.183-.013-.3-.616-.236-1.337.052-.708.263-1.285.447-1.272zm.407-4.274c.184.013.302.407.25.865s-.237.826-.42.8c-.184-.013-.302-.406-.25-.865.052-.472.236-.826.42-.8zm-42.26 225.928c.184.04.223.642.08 1.35s-.408 1.258-.592 1.22-.223-.642-.078-1.35.407-1.26.6-1.22zm1.024-5.15c.184.04.223.642.08 1.35s-.408 1.26-.592 1.22-.223-.642-.078-1.35.407-1.258.6-1.22z"/><use xlink:href="#b"/><path d="M151.664 519.432c.184.04.223.643.08 1.35s-.408 1.258-.592 1.22-.223-.642-.078-1.35c.144-.72.407-1.26.59-1.22z"/><use xlink:href="#b" x="2.062" y="-10.29"/><path d="M153.727 509.14c.184.04.223.643.08 1.35s-.408 1.258-.592 1.22-.223-.643-.078-1.35.407-1.26.6-1.22zm1.038-5.138c.184.04.223.643.08 1.35s-.408 1.26-.592 1.22-.223-.643-.078-1.35c.13-.708.407-1.258.6-1.22zm1.035-5.138c.184.04.223.642.08 1.35s-.408 1.258-.6 1.22-.224-.642-.08-1.35c.144-.72.407-1.26.6-1.22zm1.028-5.152c.184.04.223.642.08 1.35s-.408 1.26-.592 1.22-.223-.642-.078-1.35c.13-.708.394-1.245.6-1.22zm1.025-5.14c.184.04.223.642.08 1.35s-.408 1.26-.6 1.22-.224-.642-.08-1.35.407-1.258.6-1.22zm1.037-5.14c.184.04.223.642.08 1.35s-.408 1.26-.6 1.22-.224-.643-.08-1.35c.13-.708.394-1.258.6-1.22zm1.026-5.14c.184.04.223.642.08 1.35s-.408 1.26-.592 1.22-.223-.642-.078-1.35c.144-.72.407-1.258.6-1.22zm1.024-5.152c.184.04.223.642.08 1.35s-.408 1.26-.592 1.22-.223-.642-.078-1.35.407-1.245.6-1.22zm1.04-5.14c.184.04.223.643.08 1.35s-.408 1.26-.592 1.22-.223-.643-.078-1.35.407-1.258.6-1.22zm1.024-5.14c.184.04.223.643.08 1.35s-.408 1.258-.6 1.22-.224-.643-.08-1.35.407-1.258.6-1.22zm1.038-5.14c.184.04.223.643.08 1.35s-.408 1.258-.6 1.22-.224-.643-.08-1.35.407-1.26.6-1.22zm1.025-5.138c.184.04.223.642.08 1.35s-.408 1.258-.592 1.22-.223-.642-.078-1.35c.144-.72.407-1.26.6-1.22zm1.038-5.152c.184.04.223.642.08 1.35s-.408 1.26-.6 1.22-.224-.642-.08-1.35c.13-.708.407-1.26.6-1.22zm1.025-5.14c.184.04.223.642.08 1.35s-.408 1.26-.592 1.22-.223-.642-.078-1.35.407-1.258.6-1.22z"/><use xlink:href="#b" x="17.528" y="-87.412"/><path d="M169.193 432.02c.184.04.223.642.08 1.35s-.408 1.26-.592 1.22-.223-.643-.078-1.35c.144-.72.407-1.258.6-1.22zm1.037-5.153c.184.04.223.642.08 1.35s-.407 1.26-.6 1.22-.224-.643-.08-1.35c.13-.708.407-1.245.6-1.22zm1.026-5.14c.184.04.223.643.08 1.35s-.408 1.258-.6 1.22-.224-.643-.08-1.35.407-1.258.6-1.22zm1.038-5.138c.184.04.223.643.08 1.35s-.407 1.258-.6 1.22-.224-.643-.08-1.35c.13-.708.394-1.26.6-1.22zm1.026-5.14c.184.04.223.642.08 1.35s-.407 1.258-.6 1.22-.224-.642-.08-1.35.407-1.26.6-1.22zm1.024-5.15c.184.04.223.642.08 1.35s-.408 1.26-.592 1.22-.223-.642-.078-1.35.407-1.245.6-1.22zm1.038-5.14c.184.04.223.642.08 1.35s-.408 1.258-.592 1.22-.223-.642-.078-1.35.407-1.26.6-1.22zm1.025-5.14c.184.04.223.642.08 1.35s-.407 1.26-.6 1.22-.224-.642-.08-1.35.407-1.258.6-1.22zm1.038-5.138c.184.04.223.642.08 1.35s-.407 1.26-.6 1.22-.224-.643-.08-1.35.407-1.258.6-1.22zm1.025-5.14c.184.04.224.643.08 1.35s-.407 1.26-.6 1.22-.224-.643-.08-1.35c.144-.72.407-1.258.6-1.22zm1.038-5.153c.184.04.224.643.08 1.35s-.407 1.258-.6 1.22-.224-.643-.08-1.35c.13-.707.407-1.245.6-1.22zm1.025-5.138c.184.04.224.643.08 1.35s-.407 1.26-.6 1.22-.224-.643-.08-1.35.407-1.258.6-1.22zm1.037-5.138c.184.04.223.642.08 1.35s-.407 1.258-.6 1.22-.224-.642-.08-1.35c.13-.708.407-1.26.6-1.22zm1.026-5.14c.184.04.224.642.08 1.35s-.407 1.258-.6 1.22-.224-.642-.08-1.35c.144-.72.407-1.26.6-1.22zm1.038-5.152c.184.04.223.642.08 1.35s-.407 1.258-.6 1.22-.224-.642-.08-1.35c.13-.708.407-1.246.6-1.22zm1.026-5.14c.184.04.223.642.08 1.35s-.407 1.26-.6 1.22-.224-.642-.08-1.35.407-1.26.6-1.22zm1.037-5.14c.184.04.223.642.08 1.35s-.407 1.26-.6 1.22-.224-.642-.08-1.35c.13-.708.394-1.258.6-1.22z"/></g><g fill="#ebc3ae"><path d="M288.756 191.174l8.975-13.2s7.897-13.267 10.525-13.267c2.64 0 1.682 2.688-1.038 7.446-2.378 4.17-2.615 6.765-2.615 6.765l6.49 3.906s4.337-1.678 4.508 2.36c.065 1.35-.303 3.015-.75 5.467-.263 1.43-.92 2.962-2.274 2.425-.617-.25-1.13-.72-1.156-1.626-.08-2.386.368-3.264.053-3.264-.395 0-4.665 12.506-4.665 12.506l-18.055-9.517z"/><path d="M306.417 180.897c.67-.46 1.34-.918 2.076-1.233.736-.327 1.563-.498 2.365-.367.5.08 1 .302 1.314.695.434.538.46 1.324.25 1.993-.21.655-.644 1.232-1.065 1.783"/><path d="M303.46 178.26c.63-.432 1.275-.865 1.97-1.166s1.485-.472 2.234-.34c.473.08.946.288 1.248.655.407.512.447 1.246.237 1.875s-1.617 2.07-2 2.583m-15.334 1.926l-12.64 26.966 13.928 14.2 7.267-20.097s3.9.774 5.48-1.796c1.774-2.87 4.1-11.182 4.1-11.182l-18.133-8.102z"/><path d="M300.832 183.046c-.132-.04.184-1.848 1.498-3.736a6.72 6.72 0 0 1 2.168-1.914c.644-.354 1.1-.472 1.13-.393.118.196-1.5 1-2.746 2.713-1.2 1.718-1.84 3.422-2.05 3.33zm14.02.104c-.052.092-.486-.144-1.222-.275-.722-.13-1.8-.105-2.76.42-.972.538-1.6 1.416-2.05 2.032-.447.63-.75 1.023-.84.983-.08-.04.066-.5.42-1.232.368-.695.972-1.73 2.14-2.373s2.43-.563 3.207-.288c.8.275 1.156.682 1.103.734zm-4.704-3.8c.04.2-1.563.472-2.97 1.744-1.42 1.245-2.103 2.714-2.3 2.6-.158-.04.276-1.73 1.853-3.133.788-.682 1.67-1.075 2.326-1.22.657-.13 1.077-.078 1.1 0zm3.102 5.833c.184-.065.513.983-.157 2.02-.657 1.05-1.748 1.206-1.76 1.022-.053-.183.683-.563 1.183-1.376.538-.813.55-1.64.735-1.665zm-24.468 5.467s-.446-8.05 1.5-9.872c1.945-1.822 7.543.066 7.543.066"/><path d="M298.6 177.016c.145.118-1.143 2.176-2.9 4.588s-3.285 4.287-3.442 4.182 1.13-2.163 2.9-4.588 3.3-4.3 3.443-4.182zm-136.197 7.328l.827-3.802c.33-1.258.868-2.45 1.604-3.526.88-1.3 2.128-3.002 3.088-3.7 1.195-.878.696-2.766-.657-2.753s-4.718 2.36-7.03 6.568c-2.312 4.195-3.666-3.212-4.218-5.912-.538-2.688-2.614-10.947-3.574-11.432-1.406-.72-2.444.656-1.84 3.33.617 2.714 1.852 10.828.42 11.05-1.42.2-3.994-13.53-3.994-13.53s-.08-3.028-1.748-2.83c-3 .354.8 14.76 1.2 16.124.276.944-1.275 1.246-1.524.2-.25-1.062-2.247-13.778-5.322-13.437-2.352.25 3.035 11.9 1.984 14.748-1.05 2.87-3.193-9.23-5.427-8.9-.84.118-1.445.327.788 7.105 1.078 3.3 5.283 18.68 5.283 18.68l-2.418 12.6 19.2 4.85 3.338-25.445zm24.297-68.352l-.197 62.807 27.016 1.285.775-15.273s9.593 1.9 12.063-6.987c1.577-5.676 1.183-49.553 1.183-49.553l-40.84 7.72z"/></g><path d="M231.1 112.69c-4.258 1.22-5.177 8.154-5.177 8.154l-6.676 14.708c-3.403-2.66-7.963-2.504-8.83 3.46-.63 4.313 4.744 5.178 4.744 5.178-3.128 5.3-5.243 9.596-9.8 14.643-4.927 5.467-7.687 6.018-13.022 6.096h-5.887s-2.877-9.334-8.225-32.68c-5.927-25.89 11.65-27.53 21.168-30.536 18.038-4.5 43.59 5 31.695 10.977z" fill="#323238"/><g fill="#8257e6"><path d="M159.26 181.867L126.25 240.74c-1.92 4.994-.815 11.5 2.55 15.652l-.683-.983a14.1 14.1 0 0 0 10.959 5.218h.617c5.61 0 10.683-3.317 12.917-8.443l7.753-11.733-1.104-58.585z"/><path d="M230.742 177.66c-6.478-3.304-12.864-4.05-19.842-4.248-8.12-.236-19.58-1.363-28.33-.446 0 0-26.675-.812-26.793 19.81l3.52 79.18-5.716 33.94 79.933 2.412-.58-40.036c.986-20.83-1.117-50.326-1.117-50.326 1.236-11.196 7.372-16.243 8.24-23.52.776-6.45-3.534-13.817-9.316-16.766z"/></g><path d="M155.764 192.774c.026 0 .052.262.092.773l.13 2.242.38 8.232 1.143 27.176 1.235 27.176.42 8.232.092 2.242-.013.787s-.066-.262-.118-.774l-.224-2.228-.644-8.22c-.473-6.948-.985-16.557-1.432-27.162l-.933-27.19-.17-8.246-.013-2.242c.013-.524.026-.8.053-.8z" fill="#5f3dae"/><path d="M139 199.616l-3.56 10.055s-7.464 21.526-9.895 36.064l23.863-43c.197.027-10.092-3.028-10.407-3.12z" fill="#8257e6"/><path d="M150.757 197.02c.026.013-.08.223-.276.63l-.906 1.73-3.548 6.227c-3.036 5.23-7.595 12.244-12.208 20.2-2.3 3.985-4.257 7.918-5.952 11.523-1.682 3.592-2.55 7.12-2.326 10.107.17 2.99 1.05 5.297 1.853 6.765.788 1.48 1.445 2.163 1.393 2.215-.013.013-.184-.144-.486-.485-.3-.34-.697-.865-1.144-1.6-.88-1.455-1.866-3.802-2.102-6.87-.29-3.068.565-6.752 2.234-10.396 1.682-3.644 3.613-7.6 5.94-11.602 4.625-7.997 9.25-14.958 12.39-20.1l3.732-6.108 1.012-1.665c.237-.394.38-.577.394-.564z" fill="#5f3dae"/><path d="M297.797 219.005l-18.502-12.073-11.668 20.175s-16.19-22.443-23.535-35.592c-6.767-12.1-15.518-15.364-19.75-16.242-1.25-.263-2.38.773-2.247 2.045l6.373 43.64c.8 2.268 14.152 21.578 21.615 31.292 12.457 16.216 30.8 5.833 35.834-5.506 4.008-9.006 10.236-22.693 11.88-27.74z" fill="#8257e6"/><path d="M223.134 180.674c.013.013-.145.197-.447.51l-.565.577-.7.852c-1.025 1.298-2.378 3.343-3.206 6.2-.88 2.83-1.235 6.423-.696 10.304.276 1.94.75 3.96 1.6 5.9.814 1.966 1.905 3.92 2.996 5.925 4.533 7.932 9.185 14.8 12.562 19.743l4.06 5.82c.972 1.376 1.51 2.123 1.472 2.15-.013.013-.184-.158-.46-.5-.29-.34-.7-.84-1.222-1.507-1.038-1.324-2.497-3.264-4.244-5.703-3.483-4.9-8.213-11.72-12.76-19.7-1.103-2.02-2.18-3.985-3.01-6.004-.867-2.02-1.34-4.1-1.6-6.083-.512-3.985-.092-7.656.868-10.527.906-2.9 2.352-4.968 3.455-6.227l.763-.825.617-.538c.33-.262.513-.406.526-.38z" fill="#5f3dae"/><path d="M253.837 51.824l8.14 2.88v4l-12.297-5.227v-3.38l12.297-5.227v4l-8.14 2.936zm12.84 10.64h-3.07l7.654-22.643h3.07l-7.655 22.643zm18.066-10.685l-8.297-2.907v-3.98l12.44 5.227v3.366l-12.44 5.242V54.73l8.297-2.95z" fill="#8257e6"/><defs ><path id="B" d="M21.625 254.538c0-4.72 2.483-7.538 5.926-7.538s5.94 2.82 5.94 7.538-2.5 7.538-5.94 7.538c-3.443 0-5.926-2.82-5.926-7.538zm10.302 0c0-3.96-1.787-6.148-4.376-6.148s-4.376 2.176-4.376 6.148c0 3.96 1.787 6.148 4.376 6.148s4.376-2.19 4.376-6.148z"/><path id="C" d="M7 275.578c0-4.72 2.483-7.538 5.926-7.538s5.94 2.82 5.94 7.538-2.5 7.538-5.94 7.538c-3.443 0-5.926-2.818-5.926-7.538zm10.302 0c0-3.96-1.787-6.148-4.376-6.148s-4.376 2.176-4.376 6.148c0 3.96 1.787 6.148 4.376 6.148 2.59-.013 4.376-2.19 4.376-6.148z"/><path id="D" d="M39.76 288.504v14.827h-1.524v-13.476h-3.508v-1.35h5.033z"/><path id="E" d="M302.973 149.31v18.398h-1.898v-16.723h-4.355v-1.675h6.253z"/><path id="F" d="M339.393 149.31v18.398h-1.897v-16.723h-4.355v-1.675h6.252z"/><path id="G" d="M422.715 282.098c0-.157.473-.275 1.065-.275s1.064.118 1.064.275-.473.275-1.064.275-1.065-.13-1.065-.275z"/><path id="H" d="M418.445 282.098c0-.157.473-.275 1.064-.275s1.064.118 1.064.275-.473.275-1.064.275-1.064-.13-1.064-.275z"/><path id="I" d="M397.118 282.098c0-.157.473-.275 1.064-.275s1.065.118 1.065.275-.473.275-1.065.275c-.578 0-1.064-.13-1.064-.275z"/><path id="J" d="M345.95 282.098c0-.157.473-.275 1.064-.275s1.064.118 1.064.275-.473.275-1.064.275c-.578 0-1.064-.13-1.064-.275z"/><path id="K" d="M305.254 278.02c.153 0 .276-.475.276-1.062s-.123-1.062-.276-1.062-.275.476-.275 1.062.123 1.062.275 1.062z"/><path id="L" d="M305.254 273.774c.153 0 .276-.476.276-1.062s-.123-1.062-.276-1.062-.275.475-.275 1.062.123 1.062.275 1.062z"/><path id="M" d="M310.445 234.288c0 .158-.473.276-1.064.276s-1.065-.118-1.065-.276.473-.275 1.065-.275c.59-.013 1.064.118 1.064.275z"/><path id="N" d="M323.244 234.288c0 .158-.473.276-1.065.276s-1.064-.118-1.064-.276.473-.275 1.064-.275c.578-.013 1.065.118 1.065.275z"/><path id="O" d="M331.77 234.288c0 .158-.473.276-1.064.276s-1.064-.118-1.064-.276.473-.275 1.064-.275c.578-.013 1.064.118 1.064.275z"/><path id="P" d="M361.613 234.288c0 .158-.473.276-1.065.276s-1.064-.118-1.064-.276.473-.275 1.064-.275c.592-.013 1.065.118 1.065.275z"/><path id="Q" d="M365.883 234.288c0 .158-.473.276-1.064.276s-1.064-.118-1.064-.276.473-.275 1.064-.275c.59-.013 1.064.118 1.064.275z"/><path id="R" d="M395.738 234.288c0 .158-.473.276-1.064.276s-1.065-.118-1.065-.276.473-.275 1.065-.275c.578-.013 1.064.118 1.064.275z"/><path id="S" d="M424.844 239.27c-.158 0-.276-.472-.276-1.062s.118-1.062.276-1.062.276.472.276 1.062-.118 1.062-.276 1.062z"/><path id="T" d="M424.844 243.53c-.158 0-.276-.47-.276-1.06s.118-1.062.276-1.062.276.472.276 1.062-.118 1.06-.276 1.06z"/><path id="U" d="M424.844 264.807c-.158 0-.276-.472-.276-1.062s.118-1.062.276-1.062.276.472.276 1.062c0 .577-.118 1.062-.276 1.062z"/><path id="V" d="M332.836 273.682c0-.158.447-.276 1-.276s.998.118.998.276-.446.275-.998.275-1-.118-1-.275z"/><path id="W" d="M313.848 268.333c.158 0 .276.485.276 1.075s-.118 1.075-.276 1.075-.276-.485-.276-1.075.132-1.075.276-1.075z"/><path id="X" d="M313.848 264.06c.158 0 .276.485.276 1.075s-.118 1.075-.276 1.075-.276-.485-.276-1.075c0-.603.132-1.075.276-1.075z"/><path id="Y" d="M345.845 253.35c-.158 0-.276-.485-.276-1.075s.118-1.075.276-1.075.276.485.276 1.075c0 .603-.118 1.075-.276 1.075z"/><path id="Z" d="M345.845 257.636c-.158 0-.276-.485-.276-1.075s.118-1.075.276-1.075.276.485.276 1.075-.118 1.075-.276 1.075z"/><path id="a" d="M314.6 272.922h-1.524v1.52h1.524v-1.52z"/><path id="b" d="M150.64 524.57c.184.04.223.642.08 1.35s-.408 1.26-.592 1.22-.223-.642-.078-1.35c.13-.708.407-1.258.59-1.22z"/></defs></svg>