<svg xmlns="http://www.w3.org/2000/svg" width="209" height="191" fill="none" xmlns:v="https://vecta.io/nano"><g clip-path="url(#A)"><path d="M191.4.72H17.6c-4.474 0-8.1 3.627-8.1 8.1v173.356c0 4.474 3.627 8.1 8.1 8.1H191.4c4.474 0 8.1-3.627 8.1-8.1V8.822c0-4.474-3.627-8.1-8.1-8.1z" fill="#202024"/><g fill-rule="evenodd"><path d="M138.236 53.594c0 2.856 1.187 4.28 3.56 4.28 1.428 0 3-.452 4.687-1.355l2.15 6.196c-2.596 1.387-5.044 2.086-7.34 2.086-3.348 0-5.937-.922-7.767-2.76-1.824-1.838-2.736-4.472-2.736-7.888v-12.22h-6.045v-6.08h6.045V25.656l7.455-2.252v12.45h10.898v6.08h-10.898l-.007 11.66zM89.64 51.507H68.18c.376 1.99 1.212 3.575 2.512 4.758s2.812 1.775 4.547 1.775c3.2 0 5.535-1.24 7.002-3.72l6.664 1.406c-1.205 2.856-2.99 5.013-5.363 6.482-2.372 1.463-5.14 2.194-8.303 2.194-4.068 0-7.493-1.387-10.28-4.166s-4.177-6.348-4.177-10.706 1.403-7.932 4.21-10.73S71.254 34.6 75.355 34.6c3.84 0 7.142 1.342 9.9 4.026s4.228 6.132 4.374 10.337v2.544zm-18.608-9.07c-1.34.903-2.213 2.175-2.627 3.83h13.608c-.453-1.73-1.282-3.022-2.487-3.887s-2.595-1.298-4.177-1.298c-1.543 0-2.978.452-4.317 1.355zm-17.14-3.69c2.072 2.194 3.105 5.044 3.105 8.536v17.124H49.54V48.855c0-1.99-.517-3.588-1.556-4.8-1.033-1.202-2.417-1.8-4.15-1.8-4.668 0-7.002 3.23-7.002 9.688V64.4h-7.454v-28.11h7.454v2.538c2.257-2.252 5.216-3.378 8.864-3.378 3.392-.006 6.122 1.094 8.194 3.295zm59.133 25.66h8.863l-10.05-13.69 10.05-14.42h-8.863l-6.722 9.688-6.663-9.688h-8.864l10.05 14.42-10.05 13.69h8.864l6.663-9.185 6.722 9.185zM47.5 73.726v40.208h7.455V73.726H47.5zm40.83 27.308H66.873c.376 1.99 1.212 3.575 2.512 4.758s2.812 1.775 4.547 1.775c3.2 0 5.535-1.24 7.002-3.72l6.664 1.405c-1.205 2.856-2.99 5.013-5.363 6.482-2.372 1.463-5.14 2.195-8.303 2.195-4.068 0-7.493-1.387-10.28-4.167s-4.177-6.348-4.177-10.705 1.403-7.932 4.21-10.73 6.262-4.198 10.362-4.198c3.84 0 7.142 1.342 9.9 4.027s4.228 6.132 4.374 10.337v2.544zm-18.607-9.07c-1.34.903-2.213 2.175-2.627 3.83h13.608c-.453-1.73-1.282-3.02-2.487-3.887s-2.595-1.298-4.177-1.298c-1.537.006-2.978.458-4.317 1.355zm18.895-6.196l12.932 28.166h5.535l12.932-28.166h-7.965l-7.735 17.352-7.735-17.352h-7.965zm60.54 15.266H127.7c.376 1.99 1.212 3.575 2.513 4.758s2.812 1.775 4.546 1.775c3.2 0 5.535-1.24 7.002-3.72l6.664 1.405c-1.205 2.856-2.99 5.013-5.363 6.482-2.372 1.463-5.14 2.195-8.303 2.195-4.068 0-7.493-1.387-10.28-4.167s-4.177-6.348-4.177-10.705 1.403-7.932 4.21-10.73 6.262-4.198 10.362-4.198c3.84 0 7.142 1.342 9.9 4.027s4.227 6.132 4.374 10.337v2.544zm-18.607-9.07c-1.34.903-2.213 2.175-2.628 3.83h13.608c-.452-1.73-1.28-3.02-2.487-3.887s-2.595-1.298-4.176-1.298c-1.544.006-2.985.458-4.317 1.355zm23.128-18.237v40.208h7.455V73.726h-7.455zm-90.964 86.898h-6.217l-6.096-16.564-6.154 16.564h-6.21l-10.452-28.166h7.965l5.873 16.843 6.045-16.843h5.816l6.045 16.9 5.873-16.9h7.965l-10.452 28.166zm18.697-12.9h21.458v-2.544c-.147-4.205-1.607-7.653-4.375-10.337s-6.07-4.027-9.9-4.027c-4.1 0-7.556 1.4-10.362 4.2s-4.21 6.373-4.21 10.73 1.4 7.925 4.177 10.705 6.21 4.167 10.28 4.167c3.163 0 5.93-.732 8.303-2.195 2.372-1.47 4.158-3.626 5.363-6.482l-6.663-1.405c-1.467 2.48-3.8 3.72-7.002 3.72-1.734 0-3.246-.592-4.547-1.775s-2.136-2.767-2.513-4.758zm.223-5.242c.414-1.653 1.288-2.926 2.627-3.83 1.333-.897 2.774-1.348 4.317-1.355 1.58 0 2.972.433 4.177 1.298s2.034 2.156 2.487 3.886H81.636zm52.353 5.242h-21.457c.376 1.99 1.21 3.575 2.512 4.758s2.812 1.775 4.547 1.775c3.2 0 5.535-1.24 7-3.72l6.664 1.405c-1.205 2.856-2.99 5.013-5.363 6.482-2.372 1.463-5.14 2.195-8.302 2.195-4.07 0-7.493-1.387-10.28-4.167s-4.177-6.348-4.177-10.705 1.403-7.933 4.21-10.73 6.262-4.2 10.362-4.2c3.84 0 7.142 1.343 9.9 4.027s4.228 6.132 4.374 10.337v2.544zm-18.607-9.07c-1.34.903-2.213 2.176-2.627 3.83h13.608c-.453-1.73-1.282-3.02-2.487-3.886s-2.596-1.298-4.177-1.298c-1.543.007-2.984.458-4.317 1.355zm29.225 21.97v-10.648l11.3 10.642h10.164l-14.686-14.084 13.61-14.026h-9.432l-10.955 11.043v-23.16h-7.455v40.233h7.455z" fill="#fff"/><g fill="#7159c1"><path d="M21.4 45.77v-7.716L.042 45.983 0 45.967v7.92l.042-.016L21.4 61.8v-7.716l-10.96-4.157L21.4 45.77zm166.192 116.28v-7.716l10.952-4.154-10.952-4.153V138.3l21.35 7.926.05-.02v7.926l-.05-.02-21.35 7.926zm-21.343-51.147v6.138h23.728v-6.138H166.25zm-146.062 7.323v-6.14h23.728v6.14H20.188zm158.236 9.17l-12.556 40.208h7.455l12.556-40.208h-7.455z"/></g></g><rect x="170.116" y="34.744" width="39.532" height="24.707" rx="3.24" fill="#7159c1"/><g fill="#fff"><path d="M180.962 48.796h-1.397l-.52 2.968h-1.325l.52-2.968h-1.643V47.55h1.86l.362-2.056h-1.68v-1.26h1.904l.528-3h1.317l-.528 3h1.404l.53-3h1.324l-.528 3h1.585v1.26h-1.8l-.362 2.056h1.622v1.245h-1.84l-.52 2.968h-1.324l.52-2.968zm-1.18-1.245h1.397l.362-2.056h-1.404l-.355 2.056zm12.873-.126c0 1.428-.296 2.52-.887 3.277s-1.457 1.135-2.596 1.135c-1.126 0-1.987-.37-2.582-1.114s-.9-1.806-.916-3.192v-1.9c0-1.442.298-2.537.894-3.284s1.464-1.12 2.6-1.12 1.987.37 2.583 1.114.9 1.8.915 3.185v1.9zm-2.05-2.086c0-.856-.12-1.478-.355-1.866s-.596-.6-1.093-.6c-.482 0-.84.187-1.07.56s-.347.948-.36 1.738v2.5c0 .842.113 1.468.34 1.88s.6.6 1.107.6.863-.196 1.085-.6.338-.993.348-1.802v-2.44zm10.52 6.356h-7.08V50.3l3.34-3.56c.46-.5.797-.94 1.015-1.312s.333-.728.333-1.064c0-.46-.116-.818-.348-1.078s-.562-.397-.993-.397c-.463 0-.83.16-1.1.482s-.398.735-.398 1.256h-2.057c0-.63.15-1.204.447-1.724s.728-.927 1.277-1.22 1.17-.447 1.866-.447c1.064 0 1.9.255 2.475.766.592.5.887 1.232.887 2.164 0 .5-.132 1.03-.397 1.56s-.72 1.147-1.362 1.85l-2.348 2.476h4.44v1.653z"/></g></g><defs><clipPath id="A"><path fill="#fff" transform="translate(0 .721)" d="M0 0h209v189.558H0z"/></clipPath></defs></svg>